<svg xmlns="http://www.w3.org/2000/svg" viewBox="0 0 300 104"><defs><style>.cls-1{fill:#353130;}</style></defs><g id="Gabarito"><g id="_8" data-name="8"><path class="cls-1" d="M133,54.83l5.25,19.56.74,2.76a.86.86,0,0,0,.82.62h0a.87.87,0,0,0,.84-.84l.08-20.27V53.8l-.84.84h0a.85.85,0,0,0,0-1.69,30.34,30.34,0,0,0-3.54.46c-.76.1-2.84,0-3.32.77-.58.92.88,1.76,1.46.85h0l-.73.42a51.17,51.17,0,0,1,6.13-.8.85.85,0,0,0,0-1.69h0a.87.87,0,0,0-.85.85l-.08,20.26v2.87l.85-.85h0l.81.62-5.25-19.55-.75-2.77A.84.84,0,0,0,133,54.83Z"/><path class="cls-1" d="M141.25,54.26a41.52,41.52,0,0,0,5.34-.35c.54-.07,1.09-.14,1.64-.19a2.11,2.11,0,0,0,.62-.06H149c.36,0,.25-.15-.32-.5,0,0,.41,1.35.43,1.43,1.11,3.79,2.18,7.58,3.26,11.37q3,10.65,6,21.31c.48,1.69.95,3.39,1.43,5.08l1.62-.45L148.33,57.81,146.47,53a.87.87,0,0,0-.82-.62l-4.4.23c-1.08.05-1.08,1.74,0,1.68l4.4-.23-.81-.62L158,87.51l1.86,4.84c.38,1,1.92.62,1.62-.45-3.61-12.83-7.06-25.73-10.92-38.49-.41-1.35-.87-1.51-2.3-1.38-2.34.23-4.62.54-7,.55A.84.84,0,0,0,141.25,54.26Z"/><path class="cls-1" d="M140.83,54.15c3.42,2,6.8,4,10.16,6.08.92.57,1.77-.89.85-1.46-3.35-2.08-6.73-4.12-10.16-6.08a.85.85,0,0,0-.85,1.46Z"/><path class="cls-1" d="M108.56,53.31,99.94,78.45l-1.25,3.66,1.62.45c1.86-11.06,4-22.11,5.46-33.22.14-1.07-1.54-1.06-1.68,0-1.41,10.73-3.58,21.88-5.4,32.77a.84.84,0,0,0,1.62.45l8.62-25.15,1.26-3.66c.35-1-1.28-1.47-1.63-.44Z"/><path class="cls-1" d="M114.19,64.77l-8.59-7.64-1.2-1.06c-.81-.72-2,.47-1.19,1.19l8.59,7.63L113,66c.81.72,2-.47,1.19-1.19Z"/><path class="cls-1" d="M118.33,66.15,144.62,63l3.73-.45c1.06-.13,1.08-1.82,0-1.69L122.06,64l-3.73.45c-1.06.13-1.08,1.81,0,1.68Z"/><path class="cls-1" d="M90.69,8a13.27,13.27,0,0,0,2.16,16.09,20.59,20.59,0,0,1,3.83,4.58,21.33,21.33,0,0,1,2,5.23c.56,2.25.57,4.57,1.08,6.82,1.59,7.15,7.77,15.31,15.73,15.48,2.4.05,4.85-.24,7.24-.39,3.25-.22,6.51-.46,9.76-.74A151.74,151.74,0,0,0,150.45,53a13.49,13.49,0,0,0,9.38-8.22c1.57-3.66,1.63-7.49,1.65-11.4,0-2.74.23-5.59-.4-8.27a9.74,9.74,0,0,0-3.79-5.61,22.58,22.58,0,0,0-4.58-2.55c-.86-.37-1.74-.72-2.62-1a5.47,5.47,0,0,1-3.28-3A20.51,20.51,0,0,0,136.57,3.7a16,16,0,0,0-7-1.5c-2.68.09-5.35.19-8,.27-5.61.17-11.23.36-16.83.64-3.48.18-7.9-.13-11,1.84a11,11,0,0,0-3,3.07c-.62.9.84,1.74,1.45.85,2.12-3.09,5.18-3.62,8.48-3.84,5-.33,9.95-.5,14.93-.68s9.78-.47,14.64-.48,10.15,3.22,13.3,6.92c1.33,1.55,1.88,3.65,3.28,5.11s3.56,1.8,5.31,2.56c2.47,1.09,5.19,2.49,6.57,4.93,1.14,2,1.17,4.41,1.17,6.66,0,3.45.23,7-.44,10.43-.84,4.24-3.6,9.36-8.13,10.57C146.32,52.36,141,52.64,136,53.11q-8.46.78-17,1.27c-2.93.17-5.58.25-8.27-1.2a19.18,19.18,0,0,1-7.89-8.72c-2-4.21-1.63-8.89-3.18-13.23A19,19,0,0,0,96,24.72c-.79-.85-1.72-1.54-2.48-2.41a11.77,11.77,0,0,1-2.81-5.64,11.82,11.82,0,0,1,1.47-7.8A.84.84,0,0,0,90.69,8Z"/><path class="cls-1" d="M94.89,10.68a12.58,12.58,0,0,0,3,14.59,14.11,14.11,0,0,1,3,3.85,19,19,0,0,1,1.66,4.62c.47,2.08.46,4.21,1,6.26,1.68,6.11,7.09,12.78,14,12.63,5.12-.12,10.27-.64,15.37-1.08,4.93-.44,10.08-.71,14.9-1.91,3.89-1,6.69-4.74,7.87-8.38,1.07-3.33.88-6.81.93-10.25a18.11,18.11,0,0,0-.67-6.72,9.44,9.44,0,0,0-4.11-4.6,22.27,22.27,0,0,0-4.24-2,6.73,6.73,0,0,1-2.39-.93c-1.58-1.29-2-3.77-3.25-5.36a17.12,17.12,0,0,0-4.77-4c-4.45-2.54-10-1.51-14.87-1.39-5.42.14-10.83.25-16.24.45-3.85.14-9.11.38-11.22,4.23-.52,1,.93,1.8,1.46.85,2.06-3.78,8-3.35,11.69-3.46q6.49-.2,13-.35l6.37-.16c2.12,0,4.42-.36,6.49.2A13.79,13.79,0,0,1,139.31,11c1.68,1.53,2.34,3.22,3.36,5.17a5.77,5.77,0,0,0,4.15,3,14.29,14.29,0,0,1,6.52,3.93A8.54,8.54,0,0,1,155,28.5a74.09,74.09,0,0,1-.1,8.3c-.35,4.17-2.37,9.42-6.68,11a25.37,25.37,0,0,1-5,1c-2.48.35-5,.61-7.45.85q-7.64.74-15.28,1.18c-2.19.13-4.34.37-6.44-.48a15.44,15.44,0,0,1-7.49-7.38c-1.89-3.65-1.61-7.65-2.85-11.48a17.16,17.16,0,0,0-3.29-6.09c-.54-.61-1.18-1.09-1.75-1.68a11.44,11.44,0,0,1-3-5.29,10.7,10.7,0,0,1,.73-6.85C96.79,10.55,95.34,9.69,94.89,10.68Z"/><circle class="cls-1" cx="161.12" cy="93.38" r="1.65"/><circle class="cls-1" cx="166.51" cy="87.49" r="1.65"/><circle class="cls-1" cx="199.42" cy="89.63" r="1.65"/><circle class="cls-1" cx="202.51" cy="79.64" r="1.65"/><circle class="cls-1" cx="172.38" cy="77.5" r="1.65"/><circle class="cls-1" cx="139.86" cy="78.33" r="1.65"/><circle class="cls-1" cx="99.23" cy="83.33" r="1.65"/><path class="cls-1" d="M144.23,17.66q-.67,5.4-1.49,10.78c-.36,2.37-.73,4.73-1.2,7.07-.15.74-.32,1.48-.52,2.21-.06.19-.14.35-.21.53.11-.3.53-.18.13-.17-1.09,0-2.26.37-3.36.5-2.06.26-4.12.47-6.19.67-5.19.5-10.39.92-15.6,1.15-2.36.1-4.74.19-7.11.1a16.46,16.46,0,0,1-2.22-.16c-.61-.1-.94-.45-.79,0-.33-1-2-.59-1.62.44s1.71,1.16,2.63,1.26a41.16,41.16,0,0,0,5.66.15c5.57-.11,11.13-.54,16.67-1a111.49,111.49,0,0,0,12-1.37c1-.21,1.39-.68,1.7-1.7a49,49,0,0,0,1.26-6.36c.76-4.67,1.41-9.37,2-14.07.13-1.07-1.55-1.06-1.69,0Z"/><path class="cls-1" d="M91.43,22.34c.67,2.71,1.44,5.4,2.27,8.07C95,34.58,96.34,39,98.64,42.75c.76,1.24,1.83,2.79,3.43,2.87,1.08.06,1.08-1.63,0-1.68a2,2,0,0,1-.89-.58A8.07,8.07,0,0,1,100,41.68a34.92,34.92,0,0,1-2.51-5.45c-1.46-3.82-2.64-7.75-3.72-11.7-.23-.88-.47-1.75-.69-2.64-.26-1.05-1.88-.6-1.62.45Z"/><path class="cls-1" d="M210.27,35.08c-.19,1-2.84,1.41-3.71,1.61-1.35.31-2.72.54-4.09.73a106.61,106.61,0,0,1-11.44.87c-7.64.23-15.54.14-23.08-1.28a24.24,24.24,0,0,1-3.36-.83c-.88-.29-2.44-.57-1.26-1.24,1.86-1.07,4.37-1.33,6.44-1.64a122.32,122.32,0,0,1,23.66-.88,86.55,86.55,0,0,1,11.47,1.16,25.56,25.56,0,0,1,3.65.89c.24.08,1.67.54,1.69.83.09,1.08,1.77,1.09,1.68,0-.14-1.73-2.4-2.32-3.77-2.71A53.47,53.47,0,0,0,198,31a125.81,125.81,0,0,0-28.24.58c-2.44.35-5.49.65-7.61,2.06s-.67,3.1,1.15,3.84a35.22,35.22,0,0,0,9.44,1.87,132.92,132.92,0,0,0,15.06.66,119.19,119.19,0,0,0,15.11-1A37.66,37.66,0,0,0,208.3,38c1.29-.37,3.3-.92,3.59-2.45C212.1,34.47,210.48,34,210.27,35.08Z"/><path class="cls-1" d="M210.24,38.5a7.48,7.48,0,0,1-1.45.75,23.58,23.58,0,0,1-3.4.88,79.87,79.87,0,0,1-10.9,1.2,128.9,128.9,0,0,1-23.57-.67,26.85,26.85,0,0,1-7.09-1.56c-.21-.09-.68-.22-.82-.43-.3-.46-.29.17.07-.38.64-1,2.81,0,3.65.19,7.08,1.48,14.53,1.64,21.74,1.55a118.8,118.8,0,0,0,12.79-.77c1.55-.19,3.11-.4,4.64-.71.93-.18,4-1.47,4.37.17.21,1.07,1.83.62,1.62-.45a3.48,3.48,0,0,0-3-2.21,7.79,7.79,0,0,0-1.68.47c-.85.22-1.71.39-2.57.55a92.79,92.79,0,0,1-13,1.19A146.7,146.7,0,0,1,176.54,38a56.81,56.81,0,0,1-11.08-1.58,3.43,3.43,0,0,0-3.72.74,1.67,1.67,0,0,0-.42,2.14c.91,1.53,3.64,2,5.19,2.29C175,43.43,184,43.45,192.57,43.1a81.94,81.94,0,0,0,14.06-1.51c1.63-.36,5.1-.92,5.29-3.09C212,37.42,210.33,37.42,210.24,38.5Z"/><path class="cls-1" d="M161.07,35.31V38.5a.84.84,0,1,0,1.68,0V35.31a.84.84,0,1,0-1.68,0Z"/><path class="cls-1" d="M210.23,35.31V38.5a.85.85,0,0,0,1.69,0V35.31a.85.85,0,0,0-.84-.84.86.86,0,0,0-.85.84Z"/><path class="cls-1" d="M190.44,42.53,197.59,83l1,5.73c.17,1,1.65.71,1.65-.22V41.8a.84.84,0,0,0-1.68,0V88.52l1.65-.22-7.16-40.49-1-5.73c-.19-1.06-1.81-.61-1.62.45Z"/><path class="cls-1" d="M194.52,42.6l6.29,31.52.89,4.43a.84.84,0,0,0,1.65-.22l-1.16-32.19L202,41.61c0-1.08-1.72-1.09-1.68,0L201.5,73.8l.17,4.53,1.65-.22L197,46.59l-.88-4.43c-.22-1.07-1.84-.62-1.63.44Z"/><path class="cls-1" d="M169.87,41.47l-3.68,39.47-.52,5.6c-.09.95,1.44,1.14,1.65.22l9-38.93,1.29-5.54c.24-1-1.38-1.5-1.63-.45l-9,38.94-1.28,5.53,1.65.23L171,47.07l.52-5.6c.1-1.08-1.59-1.07-1.69,0Z"/><path class="cls-1" d="M172.73,41.8l-1,30.2-.14,4.31a.84.84,0,0,0,1.65.22l6.66-29.36,1-4.18c.24-1.06-1.38-1.51-1.62-.45L172.52,71.9l-1,4.18,1.65.23,1.05-30.21.15-4.3c0-1.08-1.65-1.08-1.69,0Z"/><path class="cls-1" d="M175,50.86,190.6,52l2.24.16c1.09.08,1.08-1.61,0-1.68l-15.61-1.15L175,49.18c-1.08-.08-1.08,1.6,0,1.68Z"/><path class="cls-1" d="M179.5,45.78l14.36.37,2.07.06c1.08,0,1.08-1.66,0-1.69l-14.36-.37-2.07-.06a.85.85,0,0,0,0,1.69Z"/><path class="cls-1" d="M141,39.53c3.36,1.7,6.72,3.39,10.06,5.13l1.07.57.33.18c.18.09.05.06,0,0l-.25-.59h0c.07,1.08,1.75,1.08,1.68,0,0-.71-.82-1-1.36-1.26l-2.71-1.4-6.45-3.28-1.5-.76c-1-.49-1.82,1-.85,1.45Z"/><path class="cls-1" d="M110.22,100.57l4.52-39.51.66-5.68-.85.85h6.3L120,55.16,110,94.7l-1.44,5.65a.85.85,0,0,0,1.63.45l10-39.54,1.44-5.65a.86.86,0,0,0-.82-1.07h-6.3a.87.87,0,0,0-.84.84L109.18,94.9l-.65,5.67c-.12,1.08,1.56,1.07,1.69,0Z"/></g></g></svg>