<svg xmlns="http://www.w3.org/2000/svg" viewBox="0 0 300 104"><defs><style>.cls-1{fill:#353130;}</style></defs><g id="Gabarito"><g id="_7" data-name="7"><path class="cls-1" d="M199.32,16.9a2.45,2.45,0,0,1-.68-1.06,2.56,2.56,0,0,1-.28-1.05l-.06-.43a4.06,4.06,0,0,1,.08-.7.84.84,0,0,0-.36.66V31.9H148c-2.32,0-4.71-.16-7,0a.33.33,0,0,1-.1,0,.84.84,0,0,0-.83.83v23.9a.83.83,0,0,0,1.65,0V33.55h50c2.32,0,4.71.16,7,0h.1a.84.84,0,0,0,.83-.82V17.19A3.17,3.17,0,0,1,199.32,16.9Z"/><path class="cls-1" d="M198.66,57.9l-.15,12.42q-.1,9.9-.22,19.81c0,1.25,0,2.5,0,3.75H107.56c-1,0-2.06-.1-3.08,0v-89c0-1,.1-2,0-3h94.74c0-.55,0-1.1,0-1.65H108.91c-1.68,0-3.36,0-5,0h-.21a.84.84,0,0,0-.83.83V83.22c0,3.76-.13,7.56,0,11.32a.85.85,0,0,1,0,.16.84.84,0,0,0,.83.83h83.62c3.86,0,7.75.13,11.61,0a1,1,0,0,1,.17,0,.85.85,0,0,0,.82-.83L200,82.28q.12-9.9.23-19.81l.05-4.57A.82.82,0,0,0,198.66,57.9Z"/><path class="cls-1" d="M198.36,14.79l-.06-.43a3.31,3.31,0,0,1,.45-1.66l.52-.67a2.06,2.06,0,0,1,.4-.33V7.09A48.26,48.26,0,0,1,199.26.3.83.83,0,0,0,198,1V14.32a.75.75,0,0,0,.36.67A1.36,1.36,0,0,1,198.36,14.79Z"/><path class="cls-1" d="M198.84,20.27H147.93c-2.34,0-4.75-.17-7.08,0h-.11a.84.84,0,0,0-.82.82l.14,12.69a.83.83,0,0,0,1.65,0l-.14-12.69-.83.82h50.92c2.34,0,4.74.17,7.08,0h.1a.82.82,0,0,0,0-1.64Z"/><path class="cls-1" d="M141.57,21.09V1a.83.83,0,0,0-1.65,0V21.09a.83.83,0,0,0,1.65,0Z"/><path class="cls-1" d="M170.62,21.09V1A.83.83,0,0,0,169,1V21.09a.83.83,0,0,0,1.65,0Z"/><path class="cls-1" d="M121.38,1V83.22c0,3.76-.14,7.56,0,11.32v.16a.82.82,0,0,0,1.64,0V12.48c0-3.76.14-7.56,0-11.32V1a.82.82,0,0,0-1.64,0Z"/><path class="cls-1" d="M104.45,48.07a.76.76,0,0,1-.66.57,2.28,2.28,0,0,0,.26,0l.84,0c.93,0,1.87,0,2.8,0,3,0,6,0,8.93,0q9.82,0,19.65.1l4.47,0a.82.82,0,0,0,0-1.64q-6.39-.06-12.8-.09c-6.71,0-13.43-.09-20.14,0-1,0-2.1,0-3.16.05-.64,0-1.52-.07-1.78.68-.34,1,1.25,1.43,1.59.44Z"/><path class="cls-1" d="M139.76,58.72h53.11c2.44,0,4.95.17,7.38,0h.11a.84.84,0,0,0,.82-.82V56.49a.83.83,0,0,0-.82-.83l-6.18,0-14.8,0-17.59,0-14.78,0-6.14,0h-1.46a.83.83,0,0,0-.83.82V57.9a.84.84,0,0,0,.83.82h.35l-.83-.82,0,12.42.08,19.81,0,4.57a.82.82,0,0,0,1.64,0l-.05-12.42-.07-19.81,0-4.57a.84.84,0,0,0-.82-.83h-.35l.82.83V56.63l-.82.82h6.25l14,0,17.55,0,15.47,0h5.1a15.42,15.42,0,0,0,2.45,0,.41.41,0,0,1,.11,0l-.82-.82V57.9l.82-.83H147.25c-2.44,0-4.95-.17-7.39,0h-.1a.83.83,0,0,0,0,1.65Z"/><path class="cls-1" d="M159.21,57.9V94.7a.82.82,0,0,0,1.64,0V57.9a.82.82,0,0,0-1.64,0Z"/><path class="cls-1" d="M179.41,57.9V94.7a.82.82,0,0,0,1.64,0V57.9a.82.82,0,0,0-1.64,0Z"/><path class="cls-1" d="M180.23,67.71h19.14a.83.83,0,0,0,0-1.65H180.23a.83.83,0,0,0,0,1.65Z"/><path class="cls-1" d="M103.68,94.7l.37,7.28,0,1a.85.85,0,0,0,.83.83h2a.84.84,0,0,0,.82-.83l.31-7.27,0-1c0-1.06-1.6-1-1.65,0l-.31,7.28,0,1,.82-.82h-2l.82.82-.37-7.27,0-1c-.06-1-1.7-1.06-1.65,0Z"/><path class="cls-1" d="M135.18,94.7l.37,7.28.06,1a.83.83,0,0,0,.82.83h2a.83.83,0,0,0,.82-.83l.31-7.27.05-1c0-1.06-1.6-1-1.65,0l-.31,7.28,0,1,.82-.82h-2l.82.82-.37-7.27,0-1c-.06-1-1.7-1.06-1.65,0Z"/><path class="cls-1" d="M140.11,94.7l.37,7.28.06,1a.84.84,0,0,0,.82.83h2a.85.85,0,0,0,.83-.83l.31-7.27,0-1c0-1.06-1.6-1-1.65,0l-.3,7.28-.05,1,.82-.82h-2l.82.82-.37-7.27-.05-1c0-1-1.7-1.06-1.65,0Z"/><path class="cls-1" d="M195.27,94.7l.37,7.28.05,1a.85.85,0,0,0,.83.83h2a.84.84,0,0,0,.82-.83l.31-7.27,0-1c0-1.06-1.6-1-1.65,0l-.31,7.28,0,1,.82-.82h-2l.82.82L197,95.75l-.05-1c-.06-1-1.7-1.06-1.65,0Z"/><path class="cls-1" d="M108.31,44.69h9.31a.83.83,0,0,0,0-1.65h-9.31a.83.83,0,0,0,0,1.65Z"/><path class="cls-1" d="M108.31,52.59h9.31a.83.83,0,0,0,0-1.65h-9.31a.83.83,0,0,0,0,1.65Z"/><path class="cls-1" d="M127.07,44.69h9.3a.83.83,0,0,0,0-1.65h-9.3a.83.83,0,0,0,0,1.65Z"/><path class="cls-1" d="M150.62,18.54h9.3a.83.83,0,0,0,0-1.65h-9.3a.83.83,0,0,0,0,1.65Z"/><path class="cls-1" d="M146,63h9.31a.82.82,0,0,0,0-1.64H146A.82.82,0,0,0,146,63Z"/><path class="cls-1" d="M165.48,63h9.3a.82.82,0,0,0,0-1.64h-9.3a.82.82,0,0,0,0,1.64Z"/><path class="cls-1" d="M185.15,62.42h9.31a.82.82,0,0,0,0-1.64h-9.31a.82.82,0,0,0,0,1.64Z"/><path class="cls-1" d="M185.15,71.73h9.31a.83.83,0,0,0,0-1.65h-9.31a.83.83,0,0,0,0,1.65Z"/><path class="cls-1" d="M180.23,18.54h9.31a.83.83,0,0,0,0-1.65h-9.31a.83.83,0,0,0,0,1.65Z"/><path class="cls-1" d="M127.07,52.59h9.3a.83.83,0,0,0,0-1.65h-9.3a.83.83,0,0,0,0,1.65Z"/><path class="cls-1" d="M199.67,18.17V1A.83.83,0,0,0,198,1V18.17a.83.83,0,0,0,1.65,0Z"/></g></g></svg>