<svg xmlns="http://www.w3.org/2000/svg" viewBox="0 0 300 104"><defs><style>.cls-1{fill:#353130;}</style></defs><g id="Gabarito"><g id="_4" data-name="4"><path class="cls-1" d="M123.84,92.09l-.76,2.17,1.46-.38-1-1.12.22.84.51-2.49-1.46.39,1.28,1.44a.89.89,0,0,0,1.24,0,.91.91,0,0,0,0-1.24L124,90.27a.87.87,0,0,0-1.45.38l-.36,1.76c0,.24-.1.48-.14.72a1,1,0,0,0,.22.86.12.12,0,0,0,0,.05l.31.34.67.73a.84.84,0,0,0,.84.23.91.91,0,0,0,.61-.61l.76-2.18a.87.87,0,0,0-.61-1.07.89.89,0,0,0-1.07.61Z"/><path class="cls-1" d="M177.91,92.16l.76,2.17a.87.87,0,0,0,.61.61.85.85,0,0,0,.84-.22l.57-.61.35-.39.09-.1a1,1,0,0,0,.25-.87c-.11-.58-.24-1.16-.36-1.75l-.15-.74a.88.88,0,0,0-1.46-.39l-1.28,1.44a.88.88,0,1,0,1.24,1.24l1.28-1.44-1.46-.39.5,2.49.23-.85-1,1.13,1.46.38-.76-2.17a.87.87,0,1,0-1.68.46Z"/><ellipse class="cls-1" cx="181.22" cy="95.54" rx="2.83" ry="2.84"/><ellipse class="cls-1" cx="122.21" cy="95.93" rx="2.83" ry="2.84"/><ellipse class="cls-1" cx="151.94" cy="100.89" rx="2.83" ry="2.84"/><path class="cls-1" d="M130.19,3.49a27.48,27.48,0,0,1,9.85,2l.11,0,.15,0a12.89,12.89,0,0,1,7.14,7.14c1.68,4,4.36,11,6.32,16.26,1.16,3.11,2,5.45,2.12,5.72l1.51,4.35,1,3,2.07,6.17L161,50h4.15l10,0h.58c1.75,0,7.54.33,8.31,4.61a3.72,3.72,0,0,1-.59,3.13,5.11,5.11,0,0,1-3.61,1.63c-2.82.09-43.39.09-43.8.09H136a13.22,13.22,0,0,1-12.28-9.36l-.09-.24c-.06-.4-.2-1.33-.4-3.35-.47-4.61-3.71-35.31-3.74-35.62v-.07l0-.15c-.08-.54-.41-4.29,5.21-6.3a16.35,16.35,0,0,1,5.57-.9m0-2.64a19.08,19.08,0,0,0-6.46,1c-8.17,2.94-6.91,9.29-6.91,9.29s3.27,31,3.74,35.6c.39,3.89.56,4.21.61,4.21h0A15.84,15.84,0,0,0,136,62.11h.11s41,0,43.88-.08,7.73-2.17,6.71-7.86c-1.14-6.33-8.74-6.79-10.9-6.79-.36,0-.58,0-.58,0l-10,0h-2.27l-2.06-6.17-1-3-1.52-4.4s-.89-2.42-2.14-5.76c-1.9-5.07-4.64-12.28-6.36-16.35a15.58,15.58,0,0,0-8.75-8.63A29.89,29.89,0,0,0,130.19.85Z"/><rect class="cls-1" x="139.08" y="47.36" width="22.92" height="2.64"/><path class="cls-1" d="M147.58,61V81.46a1.33,1.33,0,0,0,1.31,1.31H155a1.33,1.33,0,0,0,1.31-1.31V61A1.33,1.33,0,0,0,155,59.64h-6.1a1.31,1.31,0,0,0,0,2.62H155L153.69,61V81.46l1.3-1.31h-6.1l1.31,1.31V61A1.31,1.31,0,0,0,147.58,61Z"/><path class="cls-1" d="M149.15,81.39l1,15.19.14,2.15a.89.89,0,0,0,.87.87l1.29.05a.9.9,0,0,0,.87-.88l1.33-15.1.19-2.14a.88.88,0,0,0-.87-.87L150,80.52c-1.12,0-1.12,1.71,0,1.75l3.92.13-.87-.87-1.33,15.11-.19,2.13.87-.87-1.29-.05.87.88-1-15.19-.14-2.15C150.82,80.28,149.08,80.27,149.15,81.39Z"/><path class="cls-1" d="M154.55,82.24,175.7,91.5l3,1.32a.9.9,0,0,0,1.2-.32l.89-1.57a.87.87,0,0,0-.31-1.19L158.58,79.25l-3.15-1.51a.88.88,0,0,0-1.31.75v3a.88.88,0,0,0,1.75,0v-3l-1.31.76,21.88,10.49,3.15,1.5-.31-1.19-.9,1.57,1.19-.31-21.14-9.26-3-1.32C154.42,80.29,153.53,81.79,154.55,82.24Z"/><path class="cls-1" d="M148,81.12l-21.14,9.27-3,1.31,1.19.32-.9-1.58-.31,1.2,21.89-10.49,3.14-1.51-1.31-.75v3a.88.88,0,0,0,1.75,0v-3a.89.89,0,0,0-1.32-.76L126.11,88.62,123,90.13a.87.87,0,0,0-.31,1.19l.89,1.58a.91.91,0,0,0,1.2.31L145.88,84l3-1.32C149.9,82.18,149,80.68,148,81.12Z"/></g></g></svg>