<svg xmlns="http://www.w3.org/2000/svg" viewBox="0 0 300 104"><defs><style>.cls-1{fill:#353130;}</style></defs><g id="Gabarito"><g id="_2" data-name="2"><path class="cls-1" d="M86.52,9.39l.19,2.89.47,7,.58,8.56.51,7.75.3,4.36c0,.62,0,1.25,0,1.87V69.16l.57-.32-2.07-.91.19.33V42.53c0-.74,0-1.49,0-2.22-.07-1.23-.15-2.46-.23-3.69q-.21-3.61-.38-7.23-.2-4.25-.29-8.5c0-2.45-.08-4.92,0-7.37q0-.7.09-1.41c0-.2,0-.4,0-.6l0-.28,0-.12c0-.07,0,0,0,0V11a6.23,6.23,0,0,1,.17-.86c0-.1.06-.2.09-.31s0,.09,0,0,0,0,0-.05l.07-.11s-.07.07,0,0-.09,0,0,0a.14.14,0,0,1-.13,0A.38.38,0,0,0,87,9c-.51-.12-.78.37-.92.78a9,9,0,0,0-.32,1.93,62.6,62.6,0,0,0-.18,6.57c0,2.83.11,5.66.22,8.48q.15,4,.38,7.92.14,2.52.3,5c0,.54,0,1.07,0,1.61V68.26a.37.37,0,0,0,.18.32l2.07.91a.39.39,0,0,0,.57-.33V43c0-.93,0-1.86,0-2.79s-.15-2.11-.22-3.16l-.47-7.13-.58-8.64-.51-7.61-.28-4.11V9.39C87.24,8.91,86.49,8.9,86.52,9.39Z"/><path class="cls-1" d="M89,69.63a.59.59,0,0,1-.23,0l-2.07-.9a.48.48,0,0,1-.24-.42V41.35c0-.64,0-1.13,0-1.6-.1-1.59-.2-3.24-.3-5-.16-2.83-.28-5.42-.38-7.91-.13-3.34-.21-6-.22-8.49a61.75,61.75,0,0,1,.18-6.58v-.05A8.14,8.14,0,0,1,86,9.77c.22-.65.58-.95,1-.84a.42.42,0,0,1,.34.36.28.28,0,0,1,0,.09l1.85,27.68c0,.35.06.7.08,1,.06.7.11,1.41.14,2.12s0,1.25,0,1.87V69.16a.45.45,0,0,1-.2.39A.54.54,0,0,1,89,69.63Zm-.39-.34.24.1a.33.33,0,0,0,.32,0,.25.25,0,0,0,.11-.22V68.9ZM86.42,9.34a1.74,1.74,0,0,0-.25.49,8.23,8.23,0,0,0-.32,1.86v.05a61.31,61.31,0,0,0-.18,6.56c0,2.44.09,5.14.22,8.48.1,2.49.22,5.08.38,7.91.1,1.81.2,3.46.3,5.05,0,.47.05,1,.05,1.61V68.26a.28.28,0,0,0,.12.23l1.74.76v-.6l-1.11-.48v.46l-.52-.91.32.14V42.53c0-.23,0-.47,0-.7,0-.5,0-1,0-1.52l0-.92-.18-2.76c-.14-2.49-.27-4.93-.38-7.24-.15-3.25-.24-5.95-.29-8.5-.05-2.22-.09-4.8,0-7.38,0-.52,0-1,.09-1.41,0-.2,0-.4,0-.6l0-.28,0-.11h0l0-.13h0a1,1,0,0,1,0-.17l-.09-1.42Zm2.26,59.4V69l.25-.14Zm0-.22.56.24V42.1c0-.62,0-1.25,0-1.86s-.08-1.42-.14-2.11c0-.35,0-.7-.08-1.06L87.19,9.74a.43.43,0,0,1-.22.12l0,0v0h0l-.09.29c0,.2-.09.41-.13.61l2,29.14c0,.46,0,.93,0,1.39,0,.16,0,.32,0,.49ZM87.37,68l1.11.49V41.84c0-.17,0-.33,0-.5,0-.45,0-.91,0-1.36L86.59,11.9a1.5,1.5,0,0,0,0,.22c0,.42-.06.88-.09,1.4-.11,2.57-.07,5.15,0,7.37.05,2.55.15,5.24.29,8.49.11,2.31.24,4.75.38,7.24l.18,2.76,0,.92c0,.51,0,1,0,1.53,0,.24,0,.47,0,.7Zm-.5-58.82h0a.22.22,0,0,0-.23.25l0,.71c0-.06,0-.12.06-.19a.18.18,0,0,1,0-.06l0,0h0l0,0,0,0,0-.06h0c.08-.06.12,0,.15,0a.29.29,0,0,0,.14-.2.28.28,0,0,0,0-.09A.28.28,0,0,0,86.87,9.13Z"/><path class="cls-1" d="M87.08,9.71l.07,0,.07,0,.06,0s-.09,0,0,0l.27-.09.19,0h.15a1.81,1.81,0,0,1,1.68.79,4.24,4.24,0,0,1,.39.68c.11.22,0-.05,0,.05L90,11a3.37,3.37,0,0,1,.09.34c.08.31.14.64.19,1,0,.09,0,.19,0,.28a1,1,0,0,1,0,.17v.06c0,.1,0,0,0,0l.09.69c.06.55.11,1.1.16,1.64.12,1.31.22,2.62.31,3.93.2,3.06.35,6.12.48,9.19q.16,4.13.3,8.26c0,1.37,0,2.74.12,4.1v.06a.39.39,0,0,0,.38.38c1.38-.09,2.77-.15,4.15-.22l7.54-.36,8.55-.41,7.18-.34L122,39.7c.36,0,.75,0,1.1-.05h0l-.1-.74-2.89.49-5.37.89-2.08.33-.36.06-.14,0c-.07,0-.13,0,0,0l-.23,0-2.33.14-4.82.3-5.54.36-4.47.29-1.29.09a1.82,1.82,0,0,0-.57.07,2.26,2.26,0,0,0-1,.75,1.32,1.32,0,0,0-.14,1.13c0,.07,0-.08,0,0v.09c0,.07,0,.13,0,.2s0,.32,0,.49c0,.41,0,.82,0,1.23,0,1.69,0,3.38-.11,5.07,0,.11,0,.22,0,.33,0,.48.74.48.76,0,0-1.31.08-2.63.1-3.94,0-.89,0-1.78,0-2.67,0-.28,0-.56,0-.84s-.15-.51.09-.75a1.89,1.89,0,0,1,.46-.32l.09,0c.08,0,0,0,0,0s.06.06,0,0a.25.25,0,0,0,.15,0l1-.06,4.1-.27,5.41-.35,5-.32c1-.06,2-.13,2.93-.18.73,0,1.46-.19,2.18-.3l5.22-.86,3.88-.66.21,0c.42-.07.32-.76-.1-.74l-2.81.14-6.85.32-8.51.4-7.79.38c-1.57.08-3.13.15-4.69.24h-.25l.38.38c0-1.17-.07-2.34-.1-3.5-.09-2.72-.19-5.43-.3-8.15-.13-3.13-.28-6.25-.47-9.38-.16-2.43-.31-4.88-.66-7.3a7,7,0,0,0-.42-1.81,3,3,0,0,0-1.92-1.86A2.79,2.79,0,0,0,87,8.91l-.33.15c-.41.25,0,.9.38.65Z"/><path class="cls-1" d="M92,51.72h0a.44.44,0,0,1-.44-.46v-.33c.06-1.51.11-3.3.11-5.07,0-.36,0-.79,0-1.23,0-.16,0-.32,0-.48s0-.14,0-.2v-.08a1.41,1.41,0,0,1,.16-1.2,2.28,2.28,0,0,1,1.08-.78,1.56,1.56,0,0,1,.48-.08h.11l5.76-.38,5.54-.36,4.82-.3,2.33-.14.19,0,.22,0,.35,0,2.09-.34.42-.07-2.7.13-8.55.41L96.39,41l-1,0c-1.05,0-2.13.1-3.19.17a.47.47,0,0,1-.32-.12.56.56,0,0,1-.17-.36V40.7c0-.86-.06-1.73-.08-2.58,0-.51,0-1,0-1.52-.09-2.93-.19-5.63-.3-8.26-.16-3.71-.31-6.54-.48-9.19-.11-1.54-.2-2.78-.31-3.92-.05-.61-.11-1.15-.16-1.63l-.09-.69v-.05l0-.23c0-.09,0-.18,0-.27,0-.29-.1-.63-.18-1,0-.09-.06-.21-.1-.32v0s0,0,0-.05h0v0a4.88,4.88,0,0,0-.38-.66,1.73,1.73,0,0,0-1.59-.75h-.14l-.19,0-.22.07h-.05l-.12,0-.06,0h0A.48.48,0,0,1,86.65,9,2.06,2.06,0,0,1,87,8.82a2.88,2.88,0,0,1,1.77-.16,3.18,3.18,0,0,1,2,1.92,6.37,6.37,0,0,1,.41,1.71l0,.13c.34,2.38.5,4.82.65,7.19v.11c.17,2.73.32,5.63.47,9.39.11,2.61.21,5.28.3,8.14,0,1,.06,2,.08,3l3.58-.19.89,0,7.79-.38,8.51-.4,6.85-.32,2.81-.14h0a.47.47,0,0,1,.47.44.44.44,0,0,1-.35.5h-.08l-.13,0-3.88.65c-1.85.32-3.53.59-5.22.87l-.46.07a14.54,14.54,0,0,1-1.74.23l-2.27.14-.65,0-5,.32-5.41.35-5.14.34h0a.11.11,0,0,1-.08,0l-.07,0a1.4,1.4,0,0,0-.43.3c-.15.15-.13.28-.09.49l0,.17c0,.29,0,.58,0,.85,0,.89,0,1.77,0,2.68,0,1.3,0,2.63-.1,3.94A.48.48,0,0,1,92,51.72Zm-.21-7.84v0c0,.07,0,.13,0,.2s0,.33,0,.49c0,.45,0,.88,0,1.24,0,1.78-.05,3.56-.11,5.07v.33a.24.24,0,0,0,.25.26.28.28,0,0,0,.31-.26c0-1.32.08-2.64.1-3.94,0-.91,0-1.79,0-2.67,0-.27,0-.55-.05-.83l0-.17A.63.63,0,0,1,92.5,43a1.94,1.94,0,0,1,.48-.34l.09,0a.13.13,0,0,1,.14,0h0l5.11-.33,5.41-.35,5-.32.64,0,2.28-.14a16.85,16.85,0,0,0,1.72-.22l.46-.08,5.21-.86,2.39-.41-4.6.22-2.12.35c-.7.11-1.39.23-2.09.33l-.36.06-.17,0h0l-.14,0h-.1L109.6,41l-4.83.3-5.54.36L93.48,42h-.12a1.85,1.85,0,0,0-.42.06,2.15,2.15,0,0,0-1,.71,1.15,1.15,0,0,0-.14.94h0l0,.12Zm1.26-1.25h0ZM90.5,13c0,.21,0,.41.07.6.06.49.12,1,.17,1.64.11,1.14.2,2.39.31,3.93.17,2.65.32,5.48.48,9.19.11,2.63.21,5.33.3,8.27,0,.5,0,1,0,1.52,0,.84,0,1.72.08,2.58v0a.35.35,0,0,0,.1.23.29.29,0,0,0,.17.07l.49,0L92,40.3l.47,0h0c0-1,0-2-.08-3-.09-2.87-.19-5.53-.3-8.14-.15-3.76-.3-6.66-.47-9.38v-.12c-.15-2.36-.31-4.8-.65-7.17l0-.13a6.18,6.18,0,0,0-.39-1.66,3,3,0,0,0-1.86-1.8A2.67,2.67,0,0,0,87.07,9a1.77,1.77,0,0,0-.31.15.26.26,0,0,0-.09.37.25.25,0,0,0,.36.11l.08,0,0,0h0l.1-.05h.07l.24-.08.2,0,.07,0h.09a1.91,1.91,0,0,1,1.77.83,5,5,0,0,1,.4.7h0a.15.15,0,0,1,0,.08l0,.09h0l.08.29c.08.34.14.68.19,1,0,.1,0,.19,0,.28l0,.16h0l0,.21Zm2.2,27.49V41c.91-.06,1.82-.1,2.71-.14l1,0,7.54-.36,8.55-.41,4.42-.21,3.23-.54,1.33-.23-1.13.06-6.85.32-8.51.4-7.79.38-.89,0Zm-.24,0,0,0v0h0ZM122.94,39l-2.79.48-1.57.26,3.4-.16h.37c.22,0,.45,0,.67,0Zm.2,0,.08.54c.15,0,.19-.16.18-.28a.28.28,0,0,0-.25-.26Z"/><path class="cls-1" d="M89.06,69.52l3.1-.48a.38.38,0,0,0,.28-.36l-.15-7.44,0-1.05a.38.38,0,0,0-.75,0l.14,7.43,0,1.06.28-.37-3.1.49a.37.37,0,0,0,.2.72Z"/><path class="cls-1" d="M89,69.63a.48.48,0,0,1-.48-.34.52.52,0,0,1,.07-.4.39.39,0,0,1,.27-.19l2.73-.43-.15-8.08a.44.44,0,0,1,.46-.46.45.45,0,0,1,.49.46l.17,8.49a.48.48,0,0,1-.37.46l-3.09.48Zm2.6-1.15-2.7.42a.2.2,0,0,0-.14.1.28.28,0,0,0,0,.23.3.3,0,0,0,.36.2l3.09-.49a.26.26,0,0,0,.19-.26l-.16-8.49a.26.26,0,0,0-.29-.26.25.25,0,0,0-.26.26l.15,8,.42-.06-.6.79Z"/><path class="cls-1" d="M90.13,50.86v8.65a.38.38,0,0,0,.28.36l6.81,2.57,1,.37a.38.38,0,0,0,.46-.26c.19-1,.4-1.93.61-2.89.35-1.6.71-3.2,1.19-4.76,0-.17.1-.33.16-.49a1.18,1.18,0,0,1,.07-.2l0-.1s0-.1,0,0c0-.09.08-.17.13-.26l0,0c0-.07-.06.06,0,0s-.07,0-.09,0a.38.38,0,0,0,0-.73l-3.44-.88-5.47-1.41-1.26-.32a.37.37,0,0,0-.2.72l3.43.89,5.48,1.41,1.26.32v-.73c-.43.17-.58.75-.72,1.14-.23.7-.42,1.42-.6,2.13-.41,1.61-.77,3.23-1.11,4.86-.07.37-.15.74-.22,1.11l.46-.26-6.81-2.58-1-.36.28.36V50.86A.38.38,0,0,0,90.13,50.86Z"/><path class="cls-1" d="M98.29,62.93l-.14,0L90.37,60a.49.49,0,0,1-.34-.46V50.86a.42.42,0,0,1,.22-.39.46.46,0,0,1,.38-.07l10,2.58,0,0v0l.12,0a.42.42,0,0,1,.34.39.54.54,0,0,1-.17.43h0v0l-.12.23-.06.15a1.59,1.59,0,0,1-.07.2c0,.16-.11.32-.16.48-.48,1.56-.83,3.18-1.18,4.75-.24,1.08-.44,2-.61,2.9a.45.45,0,0,1-.23.3A.53.53,0,0,1,98.29,62.93ZM90.23,51.26v8.25a.29.29,0,0,0,.22.27l7.77,2.94a.25.25,0,0,0,.2,0,.25.25,0,0,0,.13-.16c.18-.87.38-1.82.61-2.89.35-1.59.71-3.21,1.19-4.77.05-.17.11-.33.16-.49l.08-.21,0-.13h0l0-.07-.55-.14-.12.33,0,.13c-.24.68-.42,1.39-.61,2.11-.44,1.75-.82,3.51-1.1,4.86,0,.2-.08.41-.13.62l.5.19-.84.47,0-.21.06-.32L91,59.4v.41l-.67-.88.47.18V51.42l-.41-.1A.94.94,0,0,1,90.23,51.26Zm7.85,10.82v.07l.08,0ZM91,59.18l6.94,2.63c0-.2.08-.4.13-.59.28-1.35.66-3.12,1.1-4.87.19-.72.37-1.43.61-2.13l0-.13c0-.1.07-.21.11-.32L91,51.48Zm9.69-6V54a1.19,1.19,0,0,1,.08-.16l0,0,0,0,0,0,.06-.05a.3.3,0,0,0,.08-.23.22.22,0,0,0-.19-.22Zm-.48.45.28.07v-.43A1,1,0,0,0,100.2,53.64ZM91,51.27l9,2.32a1.27,1.27,0,0,1,.37-.48L91,50.69a.47.47,0,0,1,0,.17Zm-.63-.64,0,0a.33.33,0,0,0-.08.3.24.24,0,0,0,.18.17l.36.09v-.36A.28.28,0,0,0,90.36,50.63Z"/><path class="cls-1" d="M142.14,93.05V66.21c0-1.12.06-2.25,0-3.37,0,.11,0,.1,0,0a3.89,3.89,0,0,1,.12-.49,4.72,4.72,0,0,1,.78-1.59,3.59,3.59,0,0,1,2.59-1.37l3-.36,5.44-.66,7.26-.89,8.46-1.05,9-1.12,9-1.11,8.38-1,7.12-.88,5.24-.65,2.75-.34.46-.06h.33a4.24,4.24,0,0,1,.62,0,2.69,2.69,0,0,1,1.36.57c1,.85.86,2.26.85,3.44s0,2.39,0,3.59c0,3.22,0,6.44,0,9.67q0,3.87,0,7.75c0,.4,0,.8,0,1.19l.27-.36-7.91,1.58-1.12.23.46.46c.22-1.42.14-3.34-1-4.36-1-.88-2.3-.63-3.49-.43-3.21.55-6.4,1.25-9.59,1.93-4.64,1-9.26,2-13.89,3-4.28.93-8.55,1.87-12.84,2.78-1.48.32-3,.63-4.45.93l-1.44.28-.48.08h-.08l-.15,0s-.06,0-.08,0-.1-.09.07,0,.25.12.25.35c0-.18-.16-.4-.37-.37-1.76.19-3,1.93-3.46,3.48a11.08,11.08,0,0,0-.46,3.38l.28-.36-4.68.88-7.44,1.41-1.71.32c-.47.09-.27.82.2.73l4.68-.88L154,91.12l1.71-.32a.38.38,0,0,0,.27-.37,8.3,8.3,0,0,1,1.14-4.65,4,4,0,0,1,.9-.94,3.61,3.61,0,0,1,.79-.42c.1,0,.21-.06.31-.09s.18,0,0,0l-.38-.38c0,.7,1.34.27,1.7.2,1.22-.22,2.44-.48,3.65-.74,4-.84,8-1.72,12-2.6,4.69-1,9.38-2,14.07-3,3.61-.78,7.22-1.56,10.85-2.24l1.59-.29.59-.09.15,0h.19a2,2,0,0,1,2.11,1.18,5.26,5.26,0,0,1,.3,2.46l0,.34c0,.15,0,0,0,0a.38.38,0,0,0,.47.46L214.33,78l1.12-.22a.39.39,0,0,0,.28-.37c0-1.54,0-3.09,0-4.63q0-4.83,0-9.67c0-2.71,0-5.43,0-8.14,0-1.32,0-2.79-1.07-3.74a3.75,3.75,0,0,0-2.82-.79l-.31,0h.07l-.2,0-1,.12-4,.5-6.27.78-7.91,1L183.36,54l-9.22,1.14-8.89,1.1-8,1-6.41.79-4.23.51-1.08.13a4.35,4.35,0,0,0-3.14,1.7,5,5,0,0,0-1,2.51c0,.3,0,.61,0,.91v29.3A.38.38,0,0,0,142.14,93.05Z"/><path class="cls-1" d="M141.78,93.52l-.13,0a.45.45,0,0,1-.36-.45V63.75c0-.1,0-.2,0-.3s0-.42,0-.62a5,5,0,0,1,1.05-2.56,4.47,4.47,0,0,1,3.21-1.74l1-.12h.09l4.12-.5h.11l6.41-.79,8-1,8.89-1.1,37.4-4.63.3,0a3.8,3.8,0,0,1,2.89.82c1.14,1,1.12,2.55,1.11,3.81,0,2.42,0,4.88,0,7.26v.88c0,3.22,0,6.45,0,9.67,0,1.54,0,3.09,0,4.63a.49.49,0,0,1-.36.47l-9,1.8a.51.51,0,0,1-.45-.11.57.57,0,0,1-.14-.46V79a2.64,2.64,0,0,1,0-.28,5,5,0,0,0-.3-2.41,1.84,1.84,0,0,0-2-1.12h-.19l-.15,0h0l-.57.08-1.58.28c-3.36.63-6.75,1.36-10,2.07l-.82.17c-4,.87-8.16,1.77-12.14,2.64l-3.35.73c-3.48.76-7.07,1.55-10.62,2.29l-.08,0c-1.17.25-2.38.5-3.57.72l-.2.05a3.51,3.51,0,0,1-1.13.13h0l-.29.08a3.4,3.4,0,0,0-.77.41,3.87,3.87,0,0,0-.88.92,8.32,8.32,0,0,0-1.12,4.59.47.47,0,0,1-.35.46l-13.83,2.62Zm-.08-.22a.26.26,0,0,0,.34-.25v-.34l-.36.07a.19.19,0,0,0-.17.14.31.31,0,0,0,.06.3A.32.32,0,0,0,141.7,93.3Zm.54-.62v.37a.38.38,0,0,1,0,.19l13.47-2.54a.28.28,0,0,0,.19-.27A8.46,8.46,0,0,1,157,85.72a3.87,3.87,0,0,1,.93-1,3.23,3.23,0,0,1,.81-.44l.06,0a.44.44,0,0,1-.17-.35v-.18a4.92,4.92,0,0,0-2.88,3.31,10.35,10.35,0,0,0-.45,2.92l.4-.08-.61.81v-.49ZM211.53,50.6l-37.38,4.62-8.89,1.1-8,1-6.4.79h-.11l-4.12.5h-.09l-1,.12a4.2,4.2,0,0,0-3.07,1.66,4.93,4.93,0,0,0-1,2.45c0,.2,0,.4,0,.6s0,.21,0,.31V92.64a.59.59,0,0,1,.16-.06l.39-.07V66.21c0-.37,0-.75,0-1.12,0-.7,0-1.43,0-2.13a.22.22,0,0,1,0-.16c0-.19.08-.35.12-.5a4.82,4.82,0,0,1,.8-1.62,3.67,3.67,0,0,1,2.66-1.41c.84-.09,1.67-.19,2.51-.3l.49-.06,5.44-.66,7.25-.89,8.46-1,41.55-5.14.38-.05h.43a4.23,4.23,0,0,1,.63,0,2.7,2.7,0,0,1,1.41.59c.93.8.91,2.06.89,3.18v.34c0,1.2,0,2.39,0,3.59v9.67q0,3.87,0,7.75V77l.41-.08-.61.81v-.48l-8,1.61c0,.2,0,.38-.06.5v.07l8.66-1.73a.28.28,0,0,0,.2-.27c0-1.54,0-3.09,0-4.63q0-4.83,0-9.67v-.88c0-2.38,0-4.84,0-7.26,0-1.28,0-2.73-1-3.66a3.64,3.64,0,0,0-2.74-.77l-.12,0h0l-.1,0h-.09ZM142.24,62.86c0,.74,0,1.5,0,2.23,0,.37,0,.75,0,1.12V92.47L155.12,90a11,11,0,0,1,.45-3c.48-1.5,1.69-3.32,3.5-3.55a.17.17,0,0,1,.17,0h.23l.49-.08,1.43-.28c1.48-.29,3-.6,4.45-.92,3.55-.76,7.15-1.55,10.63-2.31l2.53-.55c4.45-1,9-2,13.57-2.94l1.37-.29c2.69-.58,5.47-1.17,8.23-1.64h.09c1.15-.2,2.46-.42,3.47.46a4.64,4.64,0,0,1,1.13,3.75l8-1.61v-.8q0-3.89,0-7.75c0-3.1,0-6.41,0-9.67,0-1.2,0-2.39,0-3.59v-.35c0-1.07,0-2.28-.82-3a2.52,2.52,0,0,0-1.31-.54,3.79,3.79,0,0,0-.6,0h-.4l-.38,0-41.55,5.14-8.46,1-7.26.9-5.43.66-.5.06-2.5.3a3.49,3.49,0,0,0-2.53,1.33,4.79,4.79,0,0,0-.77,1.55c0,.15-.08.31-.11.49Zm17,21.37a4,4,0,0,0,.95-.14l.21,0c1.2-.22,2.4-.47,3.57-.72h.08c3.54-.75,7.14-1.53,10.61-2.29l3.36-.74,12.14-2.63.82-.18c3.28-.7,6.67-1.43,10-2.06l1.59-.29.59-.09h0l.16,0h.19a2.07,2.07,0,0,1,2.21,1.24,5.24,5.24,0,0,1,.31,2.5v.05l.56-.11c.08-1,0-2.7-1.05-3.64s-2.14-.61-3.31-.42l-.09,0c-2.75.47-5.53,1.06-8.21,1.63l-1.38.3c-4.53,1-9.12,2-13.57,2.93l-2.53.56c-3.48.76-7.08,1.55-10.63,2.3l-4.45.93-1.44.28-.49.08h0a.43.43,0,0,1,.11.29h-.21a.28.28,0,0,0-.06-.18l-.1-.07,0,0a.14.14,0,0,1-.09,0,2.7,2.7,0,0,0-.41.08l.46.46C159.22,84.21,159.25,84.21,159.27,84.23Zm46.78-5a.28.28,0,0,0,.35.29l.25,0-.57-.57c0,.05,0,.1,0,.15v.18Zm.37-.28.19.19a1.64,1.64,0,0,0,0-.23Z"/><path class="cls-1" d="M145.08,36.82l1.83.26a.38.38,0,0,0,.48-.36c0-1-.07-2-.11-3q-.14-3.53-.3-7c-.13-2.62-.27-5.25-.45-7.88-.14-1.91-.25-3.85-.57-5.74a3,3,0,0,0-1.1-2,2.26,2.26,0,0,0-1.81-.27,2.15,2.15,0,0,0-1,.41c-.18.18-.11.54-.11.78a.38.38,0,0,0,.64.26s0,0,0,0l.14-.08c.07,0,.12-.05.18,0l.32-.56-1.42,0-3.88-.11-5.71-.17-7-.21-7.66-.22-7.72-.23-7.18-.21-6.07-.18L92.25,10c-.68,0-1.38-.06-2.07-.06H90.1c-.49,0-.49.73,0,.75l1.42,0,3.88.11,5.71.17,7,.21,7.66.23,7.72.22,7.18.22,6.06.18,4.38.12c.69,0,1.38.06,2.07.07h.09a.39.39,0,0,0,.33-.57,1,1,0,0,0-1.48-.1l.64.27v-.52l-.19.33.23-.12c.07,0,0,0,0,0l.06,0,.15-.05.35-.1a1.41,1.41,0,0,1,1.4.45,3.1,3.1,0,0,1,.55,1.59l0,.24,0,.13c0,.09,0,0,0,.07s0,.38.07.57c0,.44.09.88.14,1.32.09,1.06.18,2.13.25,3.2q.26,3.75.43,7.52c.11,2.27.2,4.54.29,6.81l.09,2.28a8,8,0,0,0,0,1.09v0l.47-.36-1.83-.27a.38.38,0,0,0-.46.27.38.38,0,0,0,.26.46Z"/><path class="cls-1" d="M147,37.19h-.09l-1.83-.26a.41.41,0,0,1-.28-.19.52.52,0,0,1-.06-.4.47.47,0,0,1,.57-.34l1.2.18v-.59l-.09-2.28c-.09-2.41-.19-4.64-.29-6.81-.15-3-.28-5.36-.43-7.52-.09-1.25-.17-2.27-.25-3.19-.05-.5-.1-.93-.14-1.32,0-.19,0-.38-.07-.56v0h0a.06.06,0,0,1,0,0l0-.13,0-.23v-.05a3,3,0,0,0-.51-1.5,1.28,1.28,0,0,0-1.17-.43,1.29,1.29,0,0,1,.16.17.44.44,0,0,1,0,.46.52.52,0,0,1-.43.27h-.09l-1.38,0-.69,0-51-1.51a.48.48,0,0,1-.46-.51.46.46,0,0,1,.47-.45h.08c.47,0,.93,0,1.39,0l.69,0,49.6,1.46A.51.51,0,0,1,142,11a2.18,2.18,0,0,1,1-.44,2.36,2.36,0,0,1,1.89.29A3,3,0,0,1,146.05,13a50.63,50.63,0,0,1,.54,5.2l0,.54c.2,2.87.34,5.73.45,7.89s.21,4.55.3,7c0,1,.08,2,.11,3a.44.44,0,0,1-.14.34A.59.59,0,0,1,147,37.19Zm-1.78-1a.27.27,0,0,0-.29.19.34.34,0,0,0,0,.24.22.22,0,0,0,.14.1l1.83.26a.32.32,0,0,0,.28-.07.22.22,0,0,0,.08-.19c0-.12,0-.24,0-.36l-.74.56v-.2l.07,0h-.07a1.73,1.73,0,0,1,0-.32l-1.24-.18Zm1.5.21s0,.09,0,.13l.14-.11Zm0-.2.57.08c0-.87-.06-1.73-.09-2.6-.1-2.49-.19-4.79-.3-7s-.25-5-.45-7.88l0-.55c-.12-1.71-.24-3.47-.53-5.18a2.91,2.91,0,0,0-1.06-2,2.18,2.18,0,0,0-1.73-.25,2.05,2.05,0,0,0-.92.38.37.37,0,0,0-.09.22h.14a1.17,1.17,0,0,1,.49-.18l.13-.22v.22h.09a1,1,0,0,1,.34.1h.05a1.52,1.52,0,0,1,1.5.48,3.18,3.18,0,0,1,.56,1.6v0l0,.24v.07h0l0,.2h0l.06.49c0,.4.09.83.14,1.33.08.92.16,1.94.25,3.2.15,2.16.28,4.48.43,7.52.1,2.17.2,4.4.29,6.82l.09,2.28v.62Zm-3.73-24h.26a.31.31,0,0,0,.25-.17.22.22,0,0,0,0-.24,1.49,1.49,0,0,0-.17-.18Zm-.22,0h.09l0,0s0,0,0,0ZM90.08,10.06a.25.25,0,0,0-.25.25.28.28,0,0,0,.27.3l51,1.5.69,0H142a.5.5,0,0,1-.08-.27c0-.05,0-.1,0-.16v-.13L92.25,10.12l-.69,0-1.38,0h-.1Zm52,1.65h0a1,1,0,0,1,0,.17.26.26,0,0,0,.15.24.31.31,0,0,0,.32,0h0l.08-.07h0l.05,0h0l-.27-.12-.17.11.08-.14Zm.77.23h0l.19-.33h-.13l-.07,0,0,0v.28Zm-.52-.34.13.05,0-.05Zm.51-.19h0Z"/><path class="cls-1" d="M143.13,13.55l-1.41,0-3.8-.08-5.65-.12-6.85-.15L117.86,13l-7.58-.16-7.11-.15-6-.13-4.32-.09c-.68,0-1.36-.05-2,0h-.09a.38.38,0,0,0,0,.76l1.41,0,3.8.08,5.66.12,6.85.14,7.56.17,7.57.16,7.12.15,6,.13,4.32.09c.68,0,1.36,0,2,0h.09a.38.38,0,0,0,0-.75Z"/><path class="cls-1" d="M143.14,14.4H143l-1.36,0-.67,0L90.75,13.29a.47.47,0,0,1-.46-.5.45.45,0,0,1,.47-.46h.08l1.36,0,.68,0,50.25,1.07a.47.47,0,0,1,.47.5A.46.46,0,0,1,143.14,14.4Zm-.1-.2h.09a.25.25,0,0,0,.27-.26.27.27,0,0,0-.27-.29L92.88,12.58l-.68,0-1.35,0h-.1a.25.25,0,0,0-.26.26.28.28,0,0,0,.27.3L141,14.16l.68,0Z"/><path class="cls-1" d="M137.87,86.36c-.4-1.49-.79-3-1.16-4.47-.23-.9-.46-1.81-.64-2.72a1.13,1.13,0,0,1,.09-.9,4.6,4.6,0,0,1,1-1.1,12.8,12.8,0,0,1,2-1.42l-.57-.33-.28,12.66,0,1.8.74-.1c-.38-1.1-.7-2.23-1.13-3.31-.19-.5-.89-.84-1.31-1.14l-7.1-5.18-2.06-1.5.17.42.71-2.06c.11-.31-.2-.5-.46-.47-1.34.19-2.89-.79-4-1.44a31.73,31.73,0,0,1-3.2-2.19,4.4,4.4,0,0,0-1.61-.65c-1.31-.39-2.62-.78-3.94-1.15a6,6,0,0,0-1.31-.32c-.79,0-.68.83-.45,1.33l.42-.56-4.19-1.73.26.26c-.11-.34-.17-1-.46-1.22a1.37,1.37,0,0,0-.45-.18l-2.44-.82-7-2.35-1.76-.59.27.46c.82-3.8,1.67-7.56,2.78-11.29.15-.51.31-1,.49-1.52,0-.14.11-.27.16-.41l.08-.13s-.12.15,0,0a6.65,6.65,0,0,0,.88-2.29c.41-1.3.8-2.61,1.31-3.88a6,6,0,0,1,.68-1.39c.23-.31.19-.22.56-.29a19.38,19.38,0,0,0,3.23-1c1.29-.45,2.58-.93,3.86-1.41a12.7,12.7,0,0,1,1.45-.55c.67-.16,1.38-.23,2.06-.35,3.6-.6,7.21-1.14,10.78-1.86,2.59-.52,5.18-1,7.79-1.37a62.21,62.21,0,0,1,9.34-.92,15.93,15.93,0,0,1,1.69.08v-.75h-.79c-.49,0-.47.7,0,.75l8.88.9,17,1.71,11.09,1.11c.44,0,.88,0,1.33,0a5.08,5.08,0,0,1,2.05.29,10.59,10.59,0,0,0,1.82.63,21.42,21.42,0,0,0,2.63.51c.7.09,1.37,0,2.07,0,1.71.12,3.38,1.13,5.11,1,.84-.06,1.72-.21,2.6-.23a15.92,15.92,0,0,1,4.46.45,10.63,10.63,0,0,1,4.75,2.52c.59.57,1,1.25,1.55,1.85.4.45.82.87,1.2,1.34s1,1.12.83,1.61.59.66.73.2a2.17,2.17,0,0,0-.54-1.69,12.72,12.72,0,0,0-1.41-1.7c-.44-.47-.78-1-1.2-1.49a10.62,10.62,0,0,0-2.12-1.83,14.7,14.7,0,0,0-9-2,10.24,10.24,0,0,1-2.86.09c-1-.19-1.92-.5-2.89-.71a9,9,0,0,0-2.2-.15,12.12,12.12,0,0,1-2.54-.34,15.39,15.39,0,0,1-2.3-.64,5.6,5.6,0,0,0-1.71-.49c-.68-.06-1.35,0-2,0s-1.64-.16-2.46-.24l-6.38-.64L155.52,37.2l-7.2-.73-2.45-.24a11.62,11.62,0,0,0-1.31-.13l-.17,0v.75h.79a.38.38,0,0,0,0-.75,36.47,36.47,0,0,0-8.66.49c-3,.4-6,.9-9,1.47-3.55.68-7.1,1.28-10.65,1.88l-3,.51a5.07,5.07,0,0,0-1,.25c-2.35.92-4.73,1.85-7.16,2.56-.71.2-1.44.15-1.9.8a12.18,12.18,0,0,0-1.39,3.28c-.4,1.2-.74,2.42-1.16,3.61-.05.15-.11.29-.17.43a1.09,1.09,0,0,1-.08.15s.11-.15,0,0a2.21,2.21,0,0,0-.38.73,65.18,65.18,0,0,0-2,7c-.43,1.68-.77,3.38-1.13,5.07l-.19.86a.39.39,0,0,0,.26.46L107.62,69l1.45.48-.27-.26c.13.41.19,1.08.59,1.3s.76.31,1.13.47l3.06,1.26c.34.14.55-.29.43-.55a1.55,1.55,0,0,0-.07-.23c-.08-.12.09-.15-.11-.05s-.08,0,0,.08.41.1.48.12l1.57.43,3.6,1.06a4,4,0,0,0,.46.14c.22,0,.08,0,0,0,.21.19.46.36.68.53a33.34,33.34,0,0,0,3.31,2.2c1.23.69,2.72,1.49,4.17,1.29l-.46-.46-.71,2.06a.39.39,0,0,0,.17.43l5.18,3.78,3.46,2.52,1.18.86a1.86,1.86,0,0,0,.32.23c.29.18-.15,0-.05-.12a2.59,2.59,0,0,0,.2.57l.38,1.13L138.3,90a.38.38,0,0,0,.74-.1l.28-12.65,0-1.81a.38.38,0,0,0-.56-.32A15.23,15.23,0,0,0,137,76.36c-.69.55-1.69,1.36-1.72,2.33a10.26,10.26,0,0,0,.49,2.44c.28,1.12.56,2.25.86,3.37.17.68.36,1.37.54,2.06a.38.38,0,0,0,.73-.2Z"/><path class="cls-1" d="M138.67,90.35a.48.48,0,0,1-.46-.33v0h0v0l-.95-2.79a.39.39,0,0,0,0-.06c-.07-.17-.12-.28-.15-.37l-.16-.12-.1-.08L127,79.38a.49.49,0,0,1-.21-.54l.5-1.45a8.89,8.89,0,0,1-3.45-1.33,29.61,29.61,0,0,1-3.32-2.2,1.33,1.33,0,0,0-.19-.14,4.35,4.35,0,0,1-.42-.33h0c-.11,0-.21-.06-.32-.09l-.15,0-3.6-1.06-1.56-.44h-.13a.57.57,0,0,1-.12.57.38.38,0,0,1-.44.08l-.21-.08h0v0l-2.85-1.17-.37-.15a5.69,5.69,0,0,1-.77-.32c-.35-.19-.46-.65-.55-1.06l0-.06L97.52,65.75a.5.5,0,0,1-.33-.58l.19-.86c.09-.44.19-.87.28-1.31.26-1.24.53-2.52.85-3.77l.33-1.3a52.43,52.43,0,0,1,1.67-5.71,2.69,2.69,0,0,1,.4-.77l.06-.06,0-.07c.06-.14.11-.28.16-.42.25-.69.47-1.4.68-2.08.15-.51.32-1,.48-1.53.05-.14.1-.29.14-.43A10.46,10.46,0,0,1,103.73,44a2,2,0,0,1,1.41-.73,5.41,5.41,0,0,0,.55-.12c2.25-.65,4.48-1.52,6.64-2.35l.51-.2a5,5,0,0,1,1-.26l3-.51c3.59-.6,7.11-1.2,10.65-1.88,3.22-.61,6.16-1.09,9-1.47l.47-.06a34.33,34.33,0,0,1,8.21-.43h.1v0a.41.41,0,0,1,.15.07h0l.43.06,33.34,3.35.78.09a15.69,15.69,0,0,0,1.67.15h.75c.42,0,.86,0,1.29,0a5.85,5.85,0,0,1,1.73.49,14.33,14.33,0,0,0,2.29.64,11.56,11.56,0,0,0,2.51.34h.11a8.53,8.53,0,0,1,2.13.15c.43.1.87.21,1.29.33s1,.28,1.59.39a6.19,6.19,0,0,0,2,0l.86-.08a15,15,0,0,1,9.09,2,10.53,10.53,0,0,1,2.13,1.84c.19.22.37.45.54.68a10.28,10.28,0,0,0,.67.81A15,15,0,0,1,212,49a2.25,2.25,0,0,1,.55,1.78.48.48,0,0,1-.61.31.44.44,0,0,1-.3-.57c.11-.38-.42-1-.71-1.38l-.11-.14c-.24-.3-.52-.6-.78-.88l-.41-.45a8.71,8.71,0,0,1-.62-.77,10.42,10.42,0,0,0-.93-1.08,10.58,10.58,0,0,0-4.7-2.49,15.75,15.75,0,0,0-4.44-.45c-.52,0-1,.07-1.55.13l-1,.1a8.3,8.3,0,0,1-2.91-.51,10.17,10.17,0,0,0-2.22-.5c-.3,0-.61,0-.9,0a7.69,7.69,0,0,1-1.17,0,18.33,18.33,0,0,1-2.64-.52,10.13,10.13,0,0,1-1.85-.63,4.57,4.57,0,0,0-1.89-.28h-.58a8.49,8.49,0,0,1-.87,0l-37-3.72h-.09l-.13-.06h-.68a62.79,62.79,0,0,0-9.32.91c-2.62.4-5.24.86-7.78,1.38s-5.28,1-7.86,1.38L115.6,41l-.69.11a12.48,12.48,0,0,0-1.36.24,7.29,7.29,0,0,0-1,.35l-.46.19c-1.5.57-2.72,1-3.86,1.42l-.53.19a16.15,16.15,0,0,1-2.71.79l-.21,0c-.14,0-.14,0-.29.22a6,6,0,0,0-.65,1.32l0,0c-.43,1.09-.79,2.23-1.13,3.34l-.17.53c0,.16-.1.34-.15.53a4.65,4.65,0,0,1-.76,1.79l-.05.06,0,.05-.07.19-.09.21c-.17.49-.32,1-.48,1.52C99.82,57.74,99,61.32,98.21,65L109,68.6l.11,0a1,1,0,0,1,.38.16,1.8,1.8,0,0,1,.41,1l0,.1,3.23,1.33a.92.92,0,0,1,.09-.23.68.68,0,0,1,.61-.26,3.28,3.28,0,0,1,1,.22l.34.1c1.34.38,2.72.79,3.94,1.15l.28.08a3.91,3.91,0,0,1,1.36.59A30.71,30.71,0,0,0,123.92,75l.19.12c1.06.62,2.5,1.48,3.73,1.32a.54.54,0,0,1,.5.18.43.43,0,0,1,.07.41l-.61,1.76,8.85,6.45,0,0c-.07-.26-.14-.51-.2-.77-.26-1-.56-2.16-.85-3.37-.05-.19-.11-.39-.17-.6a6.51,6.51,0,0,1-.33-1.86c0-1,1.11-1.89,1.76-2.41A16.88,16.88,0,0,1,138.75,75a.48.48,0,0,1,.48,0,.47.47,0,0,1,.24.41l-.33,14.38,0,.06h0v0a.45.45,0,0,1-.39.45ZM138.4,90a.29.29,0,0,0,.32.17.25.25,0,0,0,.22-.24Zm0-1.71,0,1.51.5-.07c-.11-.33-.21-.66-.32-1C138.52,88.56,138.47,88.41,138.43,88.26Zm-1.08-1.35.05.12a.27.27,0,0,1,0,.08l.77,2.26,0-1.68c-.11-.32-.22-.64-.34-1a.53.53,0,0,1-.28.18A.5.5,0,0,1,137.35,86.91Zm1.09.75c.11.33.22.66.32,1s.13.41.2.61l.3-13.43,0,0-.53.32ZM138,86.38l0,.05c.08.22.17.45.25.69l.24-10.83a14.1,14.1,0,0,0-1.25.95,4.39,4.39,0,0,0-1,1.08,1,1,0,0,0-.08.83c.16.84.38,1.68.58,2.5l.05.21c.36,1.43.74,2.89,1.16,4.48C138,86.35,138,86.36,138,86.38Zm-.6.32a.34.34,0,0,0,.2,0,.26.26,0,0,0,.21-.28,2.12,2.12,0,0,0-.75-.7l.21.8a.31.31,0,0,0,0,.1Zm-9.88-9.3L127,78.91a.29.29,0,0,0,.14.31l9.82,7.16.07.06c-.07-.29-.15-.58-.22-.86l-.25-.17L127.74,79l-.13.36-.41-1,.43.31.45-1.3h0A2.73,2.73,0,0,1,127.49,77.4Zm9.46,8,0,0a5.6,5.6,0,0,1,.68.49c-.38-1.42-.73-2.75-1-4l-.06-.22c-.2-.81-.41-1.66-.58-2.5a1.2,1.2,0,0,1,.11-1,4.42,4.42,0,0,1,1-1.13,12.9,12.9,0,0,1,1.39-1v-.66a16.83,16.83,0,0,0-1.48,1c-.62.49-1.66,1.32-1.68,2.25a6.25,6.25,0,0,0,.33,1.81c.06.21.11.41.16.61.29,1.2.6,2.37.85,3.36Zm-9.36-8.78.55.54.08-.23a.21.21,0,0,0,0-.22.42.42,0,0,0-.33-.12Zm0,.53h.27l-.2-.2Zm-7.45-3.89c.11.08.22.17.33.24l.19.15a31.78,31.78,0,0,0,3.3,2.19,8.69,8.69,0,0,0,3.42,1.3l.18-.52A7.67,7.67,0,0,1,124,75.3l-.19-.12A30,30,0,0,1,120.61,73a3.62,3.62,0,0,0-1.3-.56l-.28-.08c-1.21-.36-2.59-.77-3.94-1.14l-.34-.11a3.33,3.33,0,0,0-.94-.21.45.45,0,0,0-.43.17.48.48,0,0,0-.07.2l.38.16.09,0,.09-.05.07,0,.12.11,0,.08,0,.06.12,0,.12,0,1.55.43,3.62,1.07.16,0,.29.08h0l0,0h0l.08,0h0a.11.11,0,0,1,.07.08Zm18.6,2.28v.33l.28-.17Zm-.08-.27.63.36v-.26a.24.24,0,0,0-.13-.23.31.31,0,0,0-.28,0Zm-25.16-3.18.15.06a.21.21,0,0,0,.23,0,.38.38,0,0,0,.07-.38l0-.09-.06,0ZM109,69.61c.09.35.19.72.45.86s.49.22.74.32l.38.14,2.65,1.1a2,2,0,0,1-.12-.64L110,70.09l.11.36-.73-.73Zm4.31,1.86a1.44,1.44,0,0,0,.09.45l.23-.31h0Zm-4-1.88.38.16a1.63,1.63,0,0,0-.33-.81,1,1,0,0,0-.3-.12l-.12,0L98.17,65.17l-.06.24,0,.26-.52-.92.48.16c.79-3.65,1.6-7.23,2.68-10.84.17-.54.31-1,.49-1.52l.09-.22c0-.07,0-.13.08-.19a.14.14,0,0,1,0-.06.18.18,0,0,1,.05-.07v0h0l0,0a4.63,4.63,0,0,0,.72-1.71c0-.19.1-.38.15-.54l.16-.53c.35-1.11.71-2.26,1.14-3.35l0-.05a6.25,6.25,0,0,1,.68-1.37c.18-.25.22-.28.43-.3l.19,0a15.79,15.79,0,0,0,2.68-.78l.54-.19c1.13-.4,2.35-.85,3.85-1.42l.45-.18a7.3,7.3,0,0,1,1-.37,13.29,13.29,0,0,1,1.38-.24l.68-.11,2.93-.48c2.58-.42,5.25-.86,7.85-1.38s5.16-1,7.79-1.37a61.78,61.78,0,0,1,9.35-.92h.5a.5.5,0,0,1,.09-.57,39.89,39.89,0,0,0-7.06.52l-.47.06c-2.82.37-5.75.85-9,1.47-3.54.67-7.06,1.27-10.65,1.88l-3,.51a4.64,4.64,0,0,0-1,.25l-.51.19c-2.16.84-4.4,1.71-6.66,2.36-.19.06-.38.09-.56.13a1.79,1.79,0,0,0-1.29.64,10.84,10.84,0,0,0-1.24,2.82c0,.15-.09.29-.13.43-.17.5-.33,1-.49,1.53-.21.68-.43,1.39-.68,2.08a3.34,3.34,0,0,1-.17.44l0,.06a.22.22,0,0,1,0,.08v0h0l0,0a2.16,2.16,0,0,0-.36.69A50.9,50.9,0,0,0,99,58l-.33,1.3c-.32,1.25-.59,2.53-.86,3.76l-.27,1.31-.19.86a.28.28,0,0,0,.2.35l11.12,3.74h0l-.13-.39ZM98,65.1h0ZM199.52,42.7a15.89,15.89,0,0,1,3.94.46,10.8,10.8,0,0,1,4.79,2.55,8.7,8.7,0,0,1,.94,1.1c.2.25.4.51.62.76l.41.45c.26.28.54.58.79.89l.11.14c.33.4.89,1.07.74,1.56a.25.25,0,0,0,.17.32.27.27,0,0,0,.36-.18,2,2,0,0,0-.52-1.6,13.93,13.93,0,0,0-1.4-1.69,8.81,8.81,0,0,1-.68-.83c-.17-.22-.34-.45-.53-.66a10.12,10.12,0,0,0-2.09-1.81,14.78,14.78,0,0,0-9-2l-.85.08a6,6,0,0,1-2,0c-.54-.11-1.08-.25-1.6-.39s-.86-.23-1.29-.33a8.54,8.54,0,0,0-2.08-.14h-.1a11.34,11.34,0,0,1-2.56-.35,14.69,14.69,0,0,1-2.32-.64,5.56,5.56,0,0,0-1.68-.48c-.42,0-.85,0-1.26,0h-.76a15.6,15.6,0,0,1-1.69-.15l-.78-.09-33.34-3.35-.25,0a.52.52,0,0,1,0,.21.43.43,0,0,1-.17.33l35.89,3.61a6,6,0,0,0,.85,0h.58a4.73,4.73,0,0,1,2,.3,10.24,10.24,0,0,0,1.81.62,19.62,19.62,0,0,0,2.61.51,7.27,7.27,0,0,0,1.14,0,7.25,7.25,0,0,1,.93,0,10.52,10.52,0,0,1,2.26.5,8,8,0,0,0,2.84.51l1-.1c.51-.06,1-.12,1.57-.13Zm-55-6,.59,0v-.49a4.53,4.53,0,0,0-.52,0h-.07Zm.8-.42v.47a.25.25,0,0,0,.16-.22.38.38,0,0,0-.09-.24Zm-1.06.41h.06v-.48a.24.24,0,0,0-.16.23A.28.28,0,0,0,144.23,36.66Z"/><path class="cls-1" d="M92.19,39.65a.38.38,0,0,0,0-.76.38.38,0,0,0,0,.76Z"/><path class="cls-1" d="M92.19,39.75a.48.48,0,0,1,0-1,.46.46,0,0,1,.35.16.5.5,0,0,1,.11.32A.46.46,0,0,1,92.19,39.75Zm0-.76a.28.28,0,1,0,.26.28A.26.26,0,0,0,92.19,39Z"/><path class="cls-1" d="M139.18,75.75a3.22,3.22,0,0,0,1-.93,6.87,6.87,0,0,0,1.28-3.59,14.42,14.42,0,0,0-.16-3.59.37.37,0,0,0-.36-.27,4.19,4.19,0,0,0-2.1.77A8.1,8.1,0,0,0,135.8,73a21.32,21.32,0,0,0-.55,5.85.38.38,0,0,0,.76,0c-.08-2.77.11-5.87,1.6-8.29a6.62,6.62,0,0,1,.74-1c.13-.13.26-.26.4-.38L139,69s.11-.09,0,0l.12-.08a4.93,4.93,0,0,1,.73-.45l.18-.08h0l.09,0,.3-.1a4.31,4.31,0,0,1,.49-.11c.11,0-.09,0,0,0H141l-.36-.28a10.77,10.77,0,0,1-.27,5.17,5.21,5.21,0,0,1-.65,1.26l-.06.07s0-.06,0,0l-.09.11-.18.19-.31.28s.07,0,0,0L139,75l-.1.07-.1.06c-.44.2-.06.85.38.65Z"/><path class="cls-1" d="M135.64,79.31a.57.57,0,0,1-.25-.06.49.49,0,0,1-.24-.4,20.53,20.53,0,0,1,.56-5.89,8.15,8.15,0,0,1,3.12-4.91,4.61,4.61,0,0,1,2.16-.79.48.48,0,0,1,.46.37,14.75,14.75,0,0,1,.16,3.61,6.93,6.93,0,0,1-1.3,3.64,3.1,3.1,0,0,1-1.09,1,.48.48,0,0,1-.49,0,.55.55,0,0,1-.23-.46.42.42,0,0,1,.26-.33l.08-.05.11-.07.06,0h0l.3-.27.17-.19.09-.11h0l0-.06a5.14,5.14,0,0,0,.64-1.23,10,10,0,0,0,.32-4.69l-.16,0-.29.1-.09,0h0l-.15.07a5.05,5.05,0,0,0-.73.44l-.08.06h0l0,0-.2.16c-.13.12-.26.25-.38.38a6.15,6.15,0,0,0-.73,1c-1.55,2.5-1.66,5.71-1.59,8.23a.45.45,0,0,1-.21.4A.53.53,0,0,1,135.64,79.31ZM141,67.47h0a4.19,4.19,0,0,0-2,.75,8.11,8.11,0,0,0-3,4.79,20.15,20.15,0,0,0-.54,5.83.24.24,0,0,0,.13.23.34.34,0,0,0,.31,0,.27.27,0,0,0,.11-.22c-.07-2.55.05-5.8,1.62-8.35a5.47,5.47,0,0,1,.75-1c.13-.14.26-.27.4-.4l.21-.17,0,0h0l.11-.08a4.87,4.87,0,0,1,.75-.46l.08,0h0l.12,0h0l.06,0a2.64,2.64,0,0,1,.3-.1l.19-.06,0-.23,0-.25.78.6H141l-.09,0-.12,0a10.18,10.18,0,0,1-.32,4.79,5.31,5.31,0,0,1-.65,1.25h0l-.09.11h0l-.09.11a1.62,1.62,0,0,1-.18.2,2.28,2.28,0,0,1-.22.21h0l-.08.06h0l-.09.06-.11.07-.11.06a.23.23,0,0,0-.14.17.33.33,0,0,0,.14.27.29.29,0,0,0,.3,0h0a3.08,3.08,0,0,0,1-.9,6.76,6.76,0,0,0,1.26-3.54,14.37,14.37,0,0,0-.16-3.56A.27.27,0,0,0,141,67.47Z"/><path class="cls-1" d="M136.47,72.25c.29-.17.23-.55.2-.83A11.73,11.73,0,0,1,136.6,70a16,16,0,0,1,1.34-5.78,31.46,31.46,0,0,1,2.73-5c.26-.4-.39-.78-.65-.38a26.64,26.64,0,0,0-3.75,8.07,13.66,13.66,0,0,0-.38,4.32c0,.17,0,.34.05.52a.86.86,0,0,0,0,.16s0-.12,0,0a.32.32,0,0,1,.15-.19.38.38,0,0,0,.38.65Z"/><path class="cls-1" d="M136.28,72.41a.47.47,0,0,1-.4-.24.48.48,0,0,1,0-.42v-.07l0-.32c0-.07,0-.13,0-.2a13.67,13.67,0,0,1,.39-4.34,26.4,26.4,0,0,1,3.75-8.1.48.48,0,0,1,.69-.13.43.43,0,0,1,.13.62,30.69,30.69,0,0,0-2.71,5A15.8,15.8,0,0,0,136.7,70c0,.42,0,.88.07,1.44v.07c0,.28.06.67-.26.86A.44.44,0,0,1,136.28,72.41Zm-.26-.6a.35.35,0,0,0,0,.25.26.26,0,0,0,.37.11h0c.2-.12.19-.35.16-.67v-.07A13.32,13.32,0,0,1,136.5,70a16,16,0,0,1,1.35-5.82,31.1,31.1,0,0,1,2.73-5.05.24.24,0,0,0-.07-.35.29.29,0,0,0-.41.08,26.28,26.28,0,0,0-3.73,8,13.57,13.57,0,0,0-.38,4.28c0,.06,0,.12,0,.19s0,.12,0,.18h0l.1.17h0a.22.22,0,0,0-.09.1s0,0,0,0h0Z"/><path class="cls-1" d="M129.59,74.37a4.31,4.31,0,0,0,.73.54c.45.31.9.6,1.36.9,1,.65,2,1.29,3,2l.28.21.12.09c.06,0,0,0,0,0l.06,0,.16.13,0,0s-.07-.12-.08-.21a.39.39,0,0,0,.38.38.38.38,0,0,0,.38-.38c0-.34-.4-.55-.65-.73-.41-.31-.84-.59-1.26-.88-1-.69-2.09-1.36-3.13-2.06l-.59-.4-.12-.08s-.12-.1,0,0a.52.52,0,0,1-.11-.1c-.33-.35-.87.18-.53.54Z"/><path class="cls-1" d="M135.62,78.58a.47.47,0,0,1-.39-.21l0,0,0,0-.12-.11,0,0h0l-.12-.09-.28-.21c-.78-.54-1.59-1.07-2.37-1.58l-.69-.46c-.43-.27-.85-.55-1.27-.84l-.17-.11a3.24,3.24,0,0,1-.59-.44h0a.49.49,0,0,1,0-.69.46.46,0,0,1,.65,0l0,0,0,0,.05,0,.11.08.59.41,1.61,1.06c.51.33,1,.66,1.52,1s.85.57,1.27.87l.1.08a1.14,1.14,0,0,1,.59.73.41.41,0,0,1-.12.32A.51.51,0,0,1,135.62,78.58Zm-.28-.49a.3.3,0,0,0,.28.29.3.3,0,0,0,.21-.1.25.25,0,0,0,.07-.17c0-.25-.28-.43-.51-.59l-.1-.07c-.41-.31-.84-.6-1.26-.87s-1-.67-1.52-1l-1.61-1.07c-.2-.13-.4-.26-.59-.4l-.12-.08,0,0h0l0,0-.09-.09a.26.26,0,0,0-.37,0,.27.27,0,0,0,0,.4,2.54,2.54,0,0,0,.55.41l.17.12,1.27.84.69.45c.79.51,1.6,1,2.37,1.59l.29.21.12.08h0l0,0,.06,0Z"/><path class="cls-1" d="M98.57,61.45c1.14.08,2.27.2,3.4.34a33,33,0,0,1,5.75,1.09,6.21,6.21,0,0,1,1.09.44l.2.12.1.07s0,0,0,0l.13.13c.07.08,0,0,0,0a.3.3,0,0,1,0,.08l0-.29-1,3.74.46-.26-3.16-.49-5-.78-1.16-.18a.38.38,0,0,0-.2.73l3.31,1.11,5.27,1.78,1.22.4a.37.37,0,0,0,.46-.26,2.23,2.23,0,0,0-.55-2.21c-.34-.36-.87.18-.53.53a1.47,1.47,0,0,1,.35,1.48l.47-.26L106,67.69l-5.28-1.78-1.21-.41-.2.73,3.16.49,5,.77,1.16.18a.39.39,0,0,0,.47-.26l.77-3c.09-.35.29-.78.06-1.1a2.46,2.46,0,0,0-1.07-.75,16.17,16.17,0,0,0-3.74-1c-1.39-.25-2.8-.43-4.2-.59-.78-.08-1.55-.16-2.33-.21-.49,0-.48.72,0,.75Z"/><path class="cls-1" d="M109.17,69.64a.34.34,0,0,1-.14,0l-9.79-3.29-.1,0v0a.47.47,0,0,1-.24-.52.5.5,0,0,1,.48-.37v0l.09,0,8.87,1.38.78-3.1a.46.46,0,0,0-.07-.07h0l-.09-.07-.2-.12a5.44,5.44,0,0,0-1.07-.43A31.72,31.72,0,0,0,102,61.89c-1.29-.16-2.37-.27-3.4-.34a.48.48,0,0,1-.45-.54.41.41,0,0,1,.47-.41c.67,0,1.39.11,2.33.21,1.62.18,3,.37,4.21.59a16.81,16.81,0,0,1,3.76,1,2.69,2.69,0,0,1,1.11.79,1.08,1.08,0,0,1,0,1l-.06.2-.7,2.8a2.31,2.31,0,0,1,.38,2.1A.49.49,0,0,1,109.17,69.64Zm-.54-.37.47.16a.28.28,0,0,0,.33-.2,2.07,2.07,0,0,0-.26-1.78.46.46,0,0,1-.44.33,1.69,1.69,0,0,1,.24.81l.54.19Zm-8.22-2.76,8.21,2.76.09-.24a1.36,1.36,0,0,0,.06-.29L103.61,67ZM109,68.8v.06l.06,0Zm-4.18-1.62,4,1.35a1.5,1.5,0,0,0-.3-.78Zm3.79.39h.06a.29.29,0,0,0,.35-.19l0-.15-.11-.13-.08-.06-.38.22a.26.26,0,0,0,.07.24Zm-4.91-.76,4.63.71a.35.35,0,0,1-.05-.13l0,0,.11-.44-7.7-1.19ZM109,67s0,0,0,0l0,0,0-.1Zm-.15-.09.23,0,.65-2.55.06-.21c.09-.29.18-.59,0-.81a2.55,2.55,0,0,0-1-.72,15.69,15.69,0,0,0-3.72-1c-1.25-.22-2.58-.41-4.19-.59-.94-.1-1.66-.16-2.33-.21a.22.22,0,0,0-.25.22.29.29,0,0,0,.27.33c1,.07,2.11.18,3.4.34a32,32,0,0,1,5.77,1.1,5.74,5.74,0,0,1,1.1.44l.21.13,0,0h0l.1.08.13-.52.17,1.34-.21-.38-.73,2.92.15,0A.41.41,0,0,1,108.87,66.86Zm-9.47-.71,3.09.48-2.95-1Zm-.06-.55a.29.29,0,0,0-.23.22.27.27,0,0,0,.09.27Z"/><path class="cls-1" d="M109.39,63.83l1,.86-.06-.45-.73,1.63a.39.39,0,0,0,.14.52c.71.33,1.43.68,2.12,1.08a4.32,4.32,0,0,1,.53.34l0,0s0,0,.06.06a.13.13,0,0,1,0-.09c0-.27,0-.17,0-.07-.16.43-.27.88-.4,1.32a.37.37,0,0,0,.26.46L114,70l4.13,1.21c1.62.49,3.25,1,4.87,1.47,1.3.4,2.61.8,3.9,1.23l1.07.38h0l.06,0c.07,0,.09.08,0,0s-.09-.13,0,0a.44.44,0,0,0,.32.24c.32,0,.46-.25.42-.53a3.06,3.06,0,0,0-.07-.4l-.37.48h1.14l-.32-.57-1.49,3.17c-.2.43.45.82.65.38l1.49-3.16a.38.38,0,0,0-.33-.57h-1.14a.38.38,0,0,0-.36.48.85.85,0,0,1,0,.17.7.7,0,0,0,0,.14c0-.08,0,0,0,0l0-.19h0l.32-.19h0l.26.11c.08.06,0,0,0,0a.21.21,0,0,0-.06-.08l-.09-.07-.08-.05-.38-.16-1.15-.4c-1.26-.42-2.53-.81-3.8-1.19q-4.32-1.32-8.65-2.58l-2-.58.26.46c.11-.37.23-.74.34-1.11a1,1,0,0,0,.09-.54.71.71,0,0,0-.25-.34,11.39,11.39,0,0,0-2.12-1.21l-.68-.32.13.51.73-1.63a.39.39,0,0,0-.06-.46l-.94-.86c-.36-.32-.9.21-.54.53Z"/><path class="cls-1" d="M128,77.39a.48.48,0,0,1-.2,0,.51.51,0,0,1-.26-.67l.95-2a.56.56,0,0,1-.19,0,.5.5,0,0,1-.35-.23l0,0c-.31-.12-.64-.24-1.05-.37-1.31-.44-2.63-.85-3.9-1.24l-4.87-1.46L114,70.13l-1.76-.51a.46.46,0,0,1-.29-.24.43.43,0,0,1,0-.35c0-.15.09-.31.14-.46s.13-.49.21-.73l-.46-.29c-.75-.43-1.53-.8-2.12-1.07a.49.49,0,0,1-.18-.65l.57-1.28-.7-.64a.43.43,0,0,1-.15-.42.56.56,0,0,1,.35-.37.46.46,0,0,1,.46.11l1,.86a.47.47,0,0,1,.08.57l-.52,1.17.29.14.33.16a9.41,9.41,0,0,1,1.82,1.06.86.86,0,0,1,.28.39.88.88,0,0,1-.06.51.32.32,0,0,0,0,.09c-.07.22-.14.44-.2.66l1.51.44c2.54.75,5.56,1.63,8.65,2.58,1.35.41,2.57.79,3.81,1.2q.52.16,1,.36a.45.45,0,0,1,.34-.15h1.14a.45.45,0,0,1,.4.21.52.52,0,0,1,0,.5l-1.48,3.16A.42.42,0,0,1,128,77.39Zm.92-3.17-1.19,2.54a.29.29,0,0,0,.15.4.21.21,0,0,0,.31-.1l1.33-2.84Zm-.74.18a.26.26,0,0,0,.15.07.24.24,0,0,0,.22-.07.28.28,0,0,0,.09-.18h-.54l.17-.23-.13.08,0,.15-.08,0a.17.17,0,0,1,.06.06l0,0h0A.14.14,0,0,1,128.17,74.4Zm-.27-.2h0l0,0h0ZM112.39,68c-.07.21-.13.43-.19.64s-.09.32-.14.47a.27.27,0,0,0,.2.34l1.75.51,4.13,1.22c1.9.56,3.44,1,4.86,1.46s2.6.8,3.91,1.24c.36.11.66.22.93.32l0-.08h0v0a1,1,0,0,0,0-.17.61.61,0,0,1,0-.27c-.33-.13-.67-.24-1-.35-1.24-.41-2.46-.79-3.81-1.2-3.09-.94-6.11-1.83-8.65-2.58L112.87,69l-.08.26-.07.22-.5-.88.24.07.27.08c.07-.22.14-.44.2-.66a.36.36,0,0,1,0-.09.72.72,0,0,0,0-.4.55.55,0,0,0-.21-.28,8.74,8.74,0,0,0-1.78-1l-.33-.16-.28-.13-.23.5c.51.24,1.1.53,1.67.86l.43.26h0a.09.09,0,0,1,0-.09l.07,0,0,0s0,0,0,.1a.88.88,0,0,0,0,.14h0l-.1.18Zm16.79,5.49.38.66.11-.24a.34.34,0,0,0,0-.31.27.27,0,0,0-.23-.11ZM129,74h.26l-.14-.25Zm-.5,0h.07l0,0Zm.27-.32a2,2,0,0,1,0,.24l.22-.47h-.32l0,.15,0,0h.06Zm-.75.09v.1l.09,0Zm0-.12a.28.28,0,0,0,0,.09l.19,0-.18-.07Zm.13-.17.27.12.08,0,.15-.2h-.37A.31.31,0,0,0,128.16,73.5ZM112.64,69l0,.05v0Zm-2.45-4.27-.55,1.22c0,.12-.06.32.09.39l.43.2-.25-.94.2.09.21.1.52-1.17a.3.3,0,0,0,0-.34l-1-.86a.28.28,0,0,0-.27-.07.34.34,0,0,0-.21.23.22.22,0,0,0,.08.22l.66.6.22-.49.14,1.08Zm0,1.23v0Z"/><path class="cls-1" d="M129.76,73.94A21.49,21.49,0,0,0,131,71.55a60.4,60.4,0,0,0,2.72-7.38,23.42,23.42,0,0,1,1.59-4.43,17.13,17.13,0,0,1,2.37-3.36,22.7,22.7,0,0,1,2.72-2.56,16.49,16.49,0,0,1,2.9-1.94,15.21,15.21,0,0,1,5.32-1.16l7.17-.79L166,48.8l11.18-1.23,10-1.1,6.81-.75c.94-.1,1.87-.21,2.81-.28,1.83-.15,3.66-.26,5.49-.29a23.52,23.52,0,0,1,2.78.07,5.08,5.08,0,0,1,.94.14,4.35,4.35,0,0,1,1.19.58,28.39,28.39,0,0,1,2.52,1.69c.39.29.76-.37.38-.65a26.93,26.93,0,0,0-2.76-1.83,4.89,4.89,0,0,0-2.11-.67,37.43,37.43,0,0,0-5.8,0c-1.49.09-3,.19-4.46.36l-5.74.63-9.53,1-11.18,1.23L157.84,49l-8.09.89-3.33.37a10.7,10.7,0,0,0-3.89,1.21,19.51,19.51,0,0,0-2.76,1.93,19.73,19.73,0,0,0-5.1,6,22.81,22.81,0,0,0-1.62,4.38c-.44,1.49-.93,3-1.47,4.43A39.14,39.14,0,0,1,129.43,73c-.1.19-.21.38-.32.56-.26.42.39.8.65.39Z"/><path class="cls-1" d="M129.45,74.21a.53.53,0,0,1-.27-.08.45.45,0,0,1-.16-.63,5.33,5.33,0,0,0,.32-.56,36.83,36.83,0,0,0,2.14-4.86c.52-1.38,1-2.87,1.48-4.42l.07-.24a21.65,21.65,0,0,1,1.55-4.16,19.85,19.85,0,0,1,5.13-6,20.15,20.15,0,0,1,2.77-1.94,10.7,10.7,0,0,1,3.93-1.22l2.21-.25,31.09-3.42L195,44.76c1.33-.15,2.74-.26,4.46-.36h.11a36.28,36.28,0,0,1,5.71,0,4.87,4.87,0,0,1,2.15.69,28.69,28.69,0,0,1,2.77,1.82.51.51,0,0,1,.09.73.41.41,0,0,1-.59.09A27.42,27.42,0,0,0,207.17,46l-.18-.1a3.48,3.48,0,0,0-1-.48,6.35,6.35,0,0,0-.92-.13,23.61,23.61,0,0,0-2.77-.07c-1.61,0-3.35.12-5.48.29-.87.06-1.75.16-2.6.26l-45.62,5-.54.06A13.44,13.44,0,0,0,143.33,52a16,16,0,0,0-2.89,1.93,23.59,23.59,0,0,0-2.71,2.54,17.53,17.53,0,0,0-2.35,3.35,19.57,19.57,0,0,0-1.4,3.77c-.06.21-.12.43-.19.64a59.32,59.32,0,0,1-2.72,7.39,22.8,22.8,0,0,1-1.23,2.4h0A.43.43,0,0,1,129.45,74.21ZM203,44.47c-1.14,0-2.29.07-3.41.13h-.11c-1.71.1-3.13.21-4.45.36l-46.36,5.1-2.21.25a10.27,10.27,0,0,0-3.85,1.2,22.06,22.06,0,0,0-7.82,7.85,20.92,20.92,0,0,0-1.54,4.11l-.07.25c-.46,1.55-1,3-1.48,4.44A39.83,39.83,0,0,1,129.52,73c-.1.18-.21.38-.33.57a.25.25,0,0,0,.09.35.27.27,0,0,0,.39-.08h0a20.55,20.55,0,0,0,1.22-2.37,59.43,59.43,0,0,0,2.71-7.36c.06-.22.13-.44.19-.65a19.47,19.47,0,0,1,1.41-3.8,17.65,17.65,0,0,1,2.38-3.39,23.27,23.27,0,0,1,2.74-2.57,16.13,16.13,0,0,1,2.92-2,13.86,13.86,0,0,1,4.81-1.11l.54-.06,45.62-5c.85-.1,1.73-.2,2.61-.26,2.13-.17,3.88-.27,5.49-.29a24,24,0,0,1,2.79.07,5.9,5.9,0,0,1,1,.14,3.84,3.84,0,0,1,1,.49l.17.11a30,30,0,0,1,2.53,1.68.2.2,0,0,0,.31,0,.31.31,0,0,0-.05-.44,26.68,26.68,0,0,0-2.75-1.82,4.8,4.8,0,0,0-2.07-.66A21.43,21.43,0,0,0,203,44.47Z"/><path class="cls-1" d="M110.93,64.62c1-1.88,2-3.75,2.95-5.62,1.63-3.06,3.27-6.13,5.07-9.09.3-.5.6-1,.93-1.47l.19-.27.08-.1,0-.07a2.44,2.44,0,0,1,.27-.29c-.06,0,0,0,.06,0a1.42,1.42,0,0,0,.28-.2,2.18,2.18,0,0,0,.35-.45,5.34,5.34,0,0,1,.64-1,4.58,4.58,0,0,1,1.92-1,14.08,14.08,0,0,1,1.92-.45l.83-.13h.11c.74-.1,1.48-.17,2.22-.24,2.53-.24,5.06-.43,7.6-.62q5.21-.39,10.42-.75l11.39-.77,10.77-.7,8.29-.53,4.16-.26h.18c.49,0,.49-.79,0-.76l-2.9.18-7.54.48-10.37.68q-5.78.38-11.54.77c-3.6.24-7.19.5-10.79.76-2.79.21-5.58.42-8.37.66a27.71,27.71,0,0,0-7,1.1,4.85,4.85,0,0,0-1.89,1.12,5.5,5.5,0,0,0-.72,1.06.8.8,0,0,1-.27.34l-.16.1a1.09,1.09,0,0,0-.17.13,4.24,4.24,0,0,0-.68.84c-.77,1.12-1.44,2.3-2.11,3.48-.9,1.56-1.76,3.13-2.62,4.71q-2,3.78-4,7.59c-.08.14-.15.28-.22.42-.22.43.43.81.65.38Z"/><path class="cls-1" d="M110.64,64.91a.46.46,0,0,1-.23-.06.49.49,0,0,1-.22-.66l.22-.41c1.39-2.68,2.7-5.17,4-7.6,1-1.9,1.83-3.36,2.61-4.71l.07-.12c.64-1.12,1.3-2.28,2-3.36l.06-.09a4,4,0,0,1,.63-.78A1.56,1.56,0,0,1,120,47l.16-.1a.55.55,0,0,0,.19-.22l0-.08.1-.19a4.81,4.81,0,0,1,.63-.89,5,5,0,0,1,1.93-1.14,23.32,23.32,0,0,1,6.07-1l.92-.08c2.87-.25,5.71-.46,8.37-.66l10.79-.76c3.55-.24,7.32-.5,11.54-.77l10.37-.68,7.54-.48h0l2.89-.18a.44.44,0,0,1,.47.42.49.49,0,0,1-.46.54h-.18l-4.17.26-8.28.53-10.77.7-11.4.77c-4.2.29-7.41.52-10.41.75-2.71.2-5.14.39-7.6.62-.71.07-1.46.14-2.22.24h-.11l-.82.13a13.53,13.53,0,0,0-1.91.45,4.51,4.51,0,0,0-1.88,1,3.32,3.32,0,0,0-.48.7l-.14.24a1.92,1.92,0,0,1-.37.47,1.79,1.79,0,0,1-.3.22l0,0,0,0a1.79,1.79,0,0,0-.22.25l0,0h0s0,0,0,0l-.08.1-.19.27c-.33.48-.64,1-.93,1.46-1.77,2.91-3.4,6-5,8.94l-.08.15c-1.11,2.08-2.07,3.92-3,5.61h0A.41.41,0,0,1,110.64,64.91ZM120.27,47l0,.06-.15.09-.16.12a4.26,4.26,0,0,0-.59.74l-.07.09c-.74,1.07-1.4,2.23-2,3.35l-.07.12c-.77,1.35-1.58,2.8-2.61,4.71-1.31,2.43-2.63,4.91-4,7.59l-.22.41a.28.28,0,0,0,.14.39.22.22,0,0,0,.33-.1h0c.88-1.7,1.84-3.54,3-5.62l.08-.14c1.58-3,3.22-6,5-9,.29-.47.6-1,.94-1.47l.19-.27,0,0h0l.12-.16h0a3.25,3.25,0,0,1,.26-.27h0l.07,0a2,2,0,0,0,.26-.19,1.73,1.73,0,0,0,.33-.43c.05-.08.1-.16.14-.24a3.93,3.93,0,0,1,.52-.74,4.76,4.76,0,0,1,2-1,15.65,15.65,0,0,1,1.94-.45l.73-.11h.21c.76-.1,1.51-.17,2.22-.24,2.46-.23,4.9-.42,7.6-.62,3-.23,6.22-.46,10.42-.75L158.2,42l10.78-.7,8.28-.53,4.17-.26h.18a.3.3,0,0,0,.27-.32.24.24,0,0,0-.26-.24l-2.89.18h0l-7.54.48-10.37.68c-4.22.27-8,.53-11.53.77l-10.79.76c-2.67.2-5.51.41-8.37.66l-.92.08a22.94,22.94,0,0,0-6,1,4.82,4.82,0,0,0-1.85,1.09,4.29,4.29,0,0,0-.59.85l-.11.19,0,.08a.72.72,0,0,1-.17.22h0l-.08.06h0Z"/><path class="cls-1" d="M142.85,11.9l.12,2.44.28,5.87.33,7.09.29,6.14c0,1,.07,2,.14,3v.05c0,.48.78.48.76,0L144.65,34l-.28-5.86-.33-7.1-.29-6.13c-.05-1-.07-2-.14-3v0c0-.48-.78-.48-.76,0Z"/><path class="cls-1" d="M144.41,36.92a.48.48,0,0,1-.5-.46v0c0-.66-.07-1.34-.1-2,0-.33,0-.66,0-1l-1-21.53a.44.44,0,0,1,.2-.4.51.51,0,0,1,.51,0,.46.46,0,0,1,.25.4v0c0,.66.07,1.33.1,2,0,.33,0,.67,0,1l1,21.53a.44.44,0,0,1-.44.47Zm-1.2-25.28a.32.32,0,0,0-.16,0,.25.25,0,0,0-.1.22l1,21.53c0,.33,0,.66,0,1,0,.65.05,1.32.1,2v0a.28.28,0,0,0,.31.28.25.25,0,0,0,.25-.26l-1-21.53c0-.34,0-.67,0-1,0-.65-.05-1.32-.1-2v0a.25.25,0,0,0-.15-.24A.26.26,0,0,0,143.21,11.64Z"/></g></g></svg>