<svg xmlns="http://www.w3.org/2000/svg" viewBox="0 0 300 104"><defs><style>.cls-1{fill:#353130;}</style></defs><g id="Gabarito"><g id="_5" data-name="5"><path class="cls-1" d="M208.74,20.14l-7.93-6.24a8.21,8.21,0,0,0-5-1.74h-93a8.08,8.08,0,0,0-5.64,2.28L91,20.37a3.51,3.51,0,0,0,2.44,6.05h5.12a3.4,3.4,0,0,0-.34,1.2L92.58,88.05A3.47,3.47,0,0,0,96,91.84h.36a3.48,3.48,0,0,0,3.44-3.06l6.76-57.45.93,0L104.79,74.4a3.47,3.47,0,0,0,6.91.52L115.51,31l0-.27,37.35-2.33,31.59,2.42,0,.25L188.3,75a3.44,3.44,0,0,0,3.45,3.16,3.46,3.46,0,0,0,3.45-3.68l-2.72-43,1.78.14,5.91,57.12a3.45,3.45,0,0,0,3.44,3.11H204a3.46,3.46,0,0,0,3.45-3.76l-5.06-60.43a3.62,3.62,0,0,0-.34-1.23h4.55a3.52,3.52,0,0,0,2.17-6.28Zm-99,54.61a1.46,1.46,0,0,1-1.47,1.35,1.48,1.48,0,0,1-1.48-1.57l2.74-43.35,2-.15,2-.13Zm83.51-.16a1.48,1.48,0,0,1-3,.23L186.47,31l4,.31Zm12.21,13.66A1.48,1.48,0,0,1,204,89.86h-.36a1.48,1.48,0,0,1-1.47-1.33L196.19,31a1.47,1.47,0,0,0-1.36-1.32l-2.47-.19V29.4l-1.71-.13-4-.31-2.32-.18v.08L153,26.46h-.21L115.7,28.78v-.06l-2.33.18-2,.15-5.3.33a1.5,1.5,0,0,0-1.38,1.31L97.86,88.55a1.49,1.49,0,0,1-1.47,1.31H96a1.49,1.49,0,0,1-1.48-1.62l5.64-60.44a1.49,1.49,0,0,1,1.47-1.35h97.25a1.48,1.48,0,0,1,1.47,1.36Zm1.13-63.81H93.43a1.54,1.54,0,0,1-1.07-2.64l6.15-5.93a6.15,6.15,0,0,1,4.27-1.73h93a6.15,6.15,0,0,1,3.8,1.32l7.94,6.23A1.54,1.54,0,0,1,206.57,24.44Z"/></g></g></svg>